<svg id="Download_on_the_App_Store_Badge_JP_RGB_blk_100317" xmlns="http://www.w3.org/2000/svg" width="110" height="40" viewBox="0 0 110 40">
  <g id="グループ_39" data-name="グループ 39">
    <path id="パス_56" data-name="パス 56" d="M100.37,0H9.635C9.265,0,8.9,0,8.529,0,8.22,0,7.913.01,7.6.015A13.491,13.491,0,0,0,5.575.191,6.785,6.785,0,0,0,3.654.818,6.5,6.5,0,0,0,2.019,2,6.262,6.262,0,0,0,.828,3.618,6.553,6.553,0,0,0,.2,5.521a12.861,12.861,0,0,0-.181,2C.006,7.83,0,8.138,0,8.444V31.559c0,.31.006.611.015.922a12.861,12.861,0,0,0,.181,2,6.54,6.54,0,0,0,.632,1.9A6.211,6.211,0,0,0,2.019,38,6.338,6.338,0,0,0,3.654,39.18a6.821,6.821,0,0,0,1.921.631,13.737,13.737,0,0,0,2.025.177c.312.007.619.011.929.011.37,0,.736,0,1.106,0H100.37c.363,0,.732,0,1.1,0,.308,0,.624,0,.932-.011a13.557,13.557,0,0,0,2.021-.177,6.927,6.927,0,0,0,1.928-.631,6.533,6.533,0,0,0,2.828-2.793,6.556,6.556,0,0,0,.626-1.9,13.369,13.369,0,0,0,.188-2c0-.311,0-.611,0-.922.008-.363.008-.725.008-1.094V9.536c0-.366,0-.729-.008-1.092,0-.307,0-.614,0-.921a13.367,13.367,0,0,0-.188-2,6.569,6.569,0,0,0-.626-1.9,6.5,6.5,0,0,0-2.828-2.8,6.889,6.889,0,0,0-1.928-.627A13.317,13.317,0,0,0,102.4.015c-.308,0-.624-.011-.932-.013C101.1,0,100.733,0,100.37,0Z" fill="#a6a6a6"/>
    <path id="パス_57" data-name="パス 57" d="M8.526,39.125c-.308,0-.608,0-.914-.011a12.958,12.958,0,0,1-1.889-.163A5.991,5.991,0,0,1,4.048,38.4a5.462,5.462,0,0,1-1.412-1.017A5.324,5.324,0,0,1,1.6,35.99a5.679,5.679,0,0,1-.549-1.657,12.285,12.285,0,0,1-.168-1.875c-.006-.211-.015-.913-.015-.913V8.444s.009-.691.015-.895a12.242,12.242,0,0,1,.167-1.872A5.713,5.713,0,0,1,1.6,4.016a5.376,5.376,0,0,1,1.026-1.4A5.623,5.623,0,0,1,4.048,1.6a5.93,5.93,0,0,1,1.671-.544,12.854,12.854,0,0,1,1.9-.164L8.527.875h92.942l.923.013a12.649,12.649,0,0,1,1.878.163,6.047,6.047,0,0,1,1.689.548,5.624,5.624,0,0,1,2.441,2.42,5.72,5.72,0,0,1,.541,1.649,12.862,12.862,0,0,1,.176,1.887c0,.283,0,.587,0,.89.008.375.008.732.008,1.092V30.465c0,.363,0,.718-.008,1.075,0,.325,0,.623,0,.93a12.6,12.6,0,0,1-.173,1.854,5.7,5.7,0,0,1-.546,1.67,5.668,5.668,0,0,1-2.441,2.408,5.969,5.969,0,0,1-1.686.55,12.809,12.809,0,0,1-1.889.163c-.3.007-.606.011-.907.011l-1.1,0Z" transform="translate(0 0)"/>
  </g>
  <g id="グループ_40" data-name="グループ 40" transform="translate(35.575 8.621)">
    <path id="パス_58" data-name="パス 58" d="M41.167,16.555H37.116l-.973,2.873H34.427L38.264,8.8h1.783l3.838,10.629H42.14Zm-3.632-1.326h3.212l-1.583-4.663H39.12Z" transform="translate(-34.427 -8.621)" fill="#fff"/>
    <path id="パス_59" data-name="パス 59" d="M52.173,15.553c0,2.408-1.289,3.955-3.234,3.955A2.627,2.627,0,0,1,46.5,18.153h-.037v3.838H44.873V11.678h1.54v1.289h.029a2.749,2.749,0,0,1,2.468-1.37C50.876,11.6,52.173,13.152,52.173,15.553Zm-1.635,0c0-1.569-.811-2.6-2.048-2.6-1.215,0-2.033,1.053-2.033,2.6s.817,2.607,2.033,2.607c1.237,0,2.048-1.024,2.048-2.607Z" transform="translate(-34.427 -8.621)" fill="#fff"/>
    <path id="パス_60" data-name="パス 60" d="M60.7,15.553c0,2.408-1.289,3.955-3.234,3.955a2.627,2.627,0,0,1-2.438-1.356h-.037v3.838H53.4V11.678h1.54v1.289h.029a2.749,2.749,0,0,1,2.468-1.37C59.406,11.6,60.7,13.152,60.7,15.553Zm-1.635,0c0-1.569-.811-2.6-2.048-2.6-1.215,0-2.033,1.053-2.033,2.6s.818,2.607,2.033,2.607c1.237,0,2.048-1.024,2.048-2.607Z" transform="translate(-34.427 -8.621)" fill="#fff"/>
    <path id="パス_61" data-name="パス 61" d="M66.339,16.466c.118,1.054,1.142,1.746,2.541,1.746,1.341,0,2.305-.692,2.305-1.643,0-.825-.582-1.319-1.959-1.658l-1.378-.332c-1.952-.471-2.858-1.384-2.858-2.865,0-1.834,1.6-3.094,3.867-3.094,2.247,0,3.787,1.26,3.838,3.094H71.09c-.1-1.061-.973-1.7-2.254-1.7s-2.158.648-2.158,1.591c0,.751.56,1.194,1.93,1.532l1.171.288c2.181.516,3.086,1.392,3.086,2.947,0,1.989-1.583,3.234-4.1,3.234-2.357,0-3.949-1.216-4.052-3.139Z" transform="translate(-34.427 -8.621)" fill="#fff"/>
    <path id="パス_62" data-name="パス 62" d="M76.3,9.844v1.834h1.474v1.26H76.3V17.21c0,.664.3.973.943.973a4.97,4.97,0,0,0,.523-.037V19.4a4.368,4.368,0,0,1-.884.074c-1.569,0-2.181-.589-2.181-2.092V12.938H73.575v-1.26H74.7V9.844Z" transform="translate(-34.427 -8.621)" fill="#fff"/>
    <path id="パス_63" data-name="パス 63" d="M78.626,15.553c0-2.438,1.436-3.97,3.675-3.97s3.676,1.532,3.676,3.97-1.422,3.97-3.676,3.97S78.626,18,78.626,15.553Zm5.731,0c0-1.673-.767-2.66-2.055-2.66s-2.055.995-2.055,2.66.767,2.659,2.055,2.659S84.357,17.233,84.357,15.553Z" transform="translate(-34.427 -8.621)" fill="#fff"/>
    <path id="パス_64" data-name="パス 64" d="M87.289,11.678h1.517V13h.037a1.848,1.848,0,0,1,1.864-1.4,2.453,2.453,0,0,1,.545.059v1.488a2.224,2.224,0,0,0-.715-.1,1.6,1.6,0,0,0-1.658,1.783v4.6H87.289Z" transform="translate(-34.427 -8.621)" fill="#fff"/>
    <path id="パス_65" data-name="パス 65" d="M98.586,17.151a3.11,3.11,0,0,1-3.337,2.372c-2.254,0-3.654-1.51-3.654-3.934S93,11.583,95.182,11.583c2.144,0,3.492,1.473,3.492,3.823v.545H93.2v.1a2.018,2.018,0,0,0,2.085,2.2,1.753,1.753,0,0,0,1.79-1.09Zm-5.377-2.313h3.874a1.864,1.864,0,0,0-1.9-1.967,1.962,1.962,0,0,0-1.974,1.967Z" transform="translate(-34.427 -8.621)" fill="#fff"/>
  </g>
  <g id="グループ_41" data-name="グループ 41" transform="translate(35.533 23.374)">
    <path id="パス_66" data-name="パス 66" d="M36.437,30.812l.066-.819a3.132,3.132,0,0,0,.951.151c.292,0,.4-.028.546-.227a4.565,4.565,0,0,0,.433-2.315c0-.848-.263-1.093-.932-1.093-.151,0-.32.01-.509.02a13.727,13.727,0,0,1-1.77,4.123l-.782-.424a11.071,11.071,0,0,0,1.647-3.615,13.677,13.677,0,0,0-1.534.255l-.169-.829c.574-.1,1.261-.2,1.9-.254a17.61,17.61,0,0,0,.292-1.893l.923.1c-.085.574-.188,1.149-.32,1.714h.367c1.2,0,1.77.593,1.77,1.854a5.834,5.834,0,0,1-.546,2.8,1.157,1.157,0,0,1-1.13.6,5.181,5.181,0,0,1-1.205-.15Zm3.031-5.074.688-.462a5.3,5.3,0,0,1,1.61,3.484l-.9.141a4.4,4.4,0,0,0-1.394-3.163Z" transform="translate(-34.384 -23.374)" fill="#fff"/>
    <path id="パス_67" data-name="パス 67" d="M44.887,30.943,44.7,30.1c.235.02.546.028.734.028,1.864,0,2.57-.526,2.57-1.309,0-.621-.4-.979-1.309-.979a4.039,4.039,0,0,0-2.58,1.262l-.725-.32a5.524,5.524,0,0,1,.8-3.53l.838.272a3.687,3.687,0,0,0-.715,2.448,4.817,4.817,0,0,1,2.57-.876c1.262,0,2.043.649,2.043,1.7,0,1.337-1.055,2.156-3.587,2.156C45.216,30.953,45.038,30.943,44.887,30.943Zm-.875-6.251.235-.829a25.885,25.885,0,0,1,3.7.848l-.226.819a21.142,21.142,0,0,0-3.709-.838Z" transform="translate(-34.384 -23.374)" fill="#fff"/>
    <path id="パス_68" data-name="パス 68" d="M51.652,30.294a5.948,5.948,0,0,0,2.532-1.639,10.7,10.7,0,0,0-1.76-1.186l.518-.649a11.445,11.445,0,0,1,1.789,1.129,5.954,5.954,0,0,0,.923-2.175h-2.4A9.7,9.7,0,0,1,51.2,28.138l-.687-.593a8.924,8.924,0,0,0,2.618-3.6l.9.217c-.1.264-.207.536-.33.791H56.04l.668.311a7.141,7.141,0,0,1-4.51,5.762Zm3.973-6.571.527-.255a5.677,5.677,0,0,1,.668,1.158l-.593.273A5.134,5.134,0,0,0,55.625,23.723Zm1.177-.095.537-.254a6.356,6.356,0,0,1,.688,1.187l-.593.254a5.169,5.169,0,0,0-.631-1.187Z" transform="translate(-34.384 -23.374)" fill="#fff"/>
    <path id="パス_69" data-name="パス 69" d="M60.921,30.99l-.48-.763a3.944,3.944,0,0,0,3.314-4.151H59.8v1.893H58.85V25.275h2.363V23.892h.951v1.384h1.761l.866.245C64.678,28.194,63.784,30.237,60.921,30.99Z" transform="translate(-34.384 -23.374)" fill="#fff"/>
    <path id="パス_70" data-name="パス 70" d="M66.623,25.342l.527-.772a11.683,11.683,0,0,1,2.315,1.4l-.6.81a11.053,11.053,0,0,0-2.24-1.44Zm.179,4.642a7.317,7.317,0,0,0,5.433-3.917l.621.7a7.964,7.964,0,0,1-5.7,4.095Z" transform="translate(-34.384 -23.374)" fill="#fff"/>
    <path id="パス_71" data-name="パス 71" d="M80.571,30.436H74.649v-5.6h5.922ZM75.582,25.7v3.87h4.048V25.7Z" transform="translate(-34.384 -23.374)" fill="#fff"/>
    <path id="パス_72" data-name="パス 72" d="M89.049,27.921H82.393v-.96h6.656Z" transform="translate(-34.384 -23.374)" fill="#fff"/>
    <path id="パス_73" data-name="パス 73" d="M91.314,23.92h.932v2.41a29.015,29.015,0,0,1,3.6,1.8l-.527.828a22.723,22.723,0,0,0-3.069-1.647v3.634h-.932Zm2.212.509.556-.264a6.2,6.2,0,0,1,.669,1.28l-.612.273a5.516,5.516,0,0,0-.612-1.29Zm1.073-.405.565-.264a6.1,6.1,0,0,1,.706,1.28l-.612.273a6.128,6.128,0,0,0-.659-1.29Z" transform="translate(-34.384 -23.374)" fill="#fff"/>
  </g>
  <g id="_Group_" data-name="&lt;Group&gt;" transform="translate(9.972 8.72)">
    <g id="_Group_2" data-name="&lt;Group&gt;">
      <path id="_Path_" data-name="&lt;Path&gt;" d="M24.769,20.3a4.949,4.949,0,0,1,2.357-4.152,5.066,5.066,0,0,0-3.991-2.158c-1.679-.176-3.307,1-4.163,1-.872,0-2.19-.987-3.608-.958a5.315,5.315,0,0,0-4.473,2.728c-1.934,3.348-.491,8.269,1.361,10.976.927,1.325,2.01,2.806,3.428,2.753,1.387-.058,1.905-.884,3.579-.884,1.659,0,2.145.884,3.591.851,1.488-.024,2.426-1.331,3.321-2.669A10.962,10.962,0,0,0,27.688,24.7,4.782,4.782,0,0,1,24.769,20.3Z" transform="translate(-9.972 -8.72)" fill="#fff"/>
      <path id="_Path_2" data-name="&lt;Path&gt;" d="M22.037,12.211A4.872,4.872,0,0,0,23.152,8.72a4.957,4.957,0,0,0-3.208,1.66A4.636,4.636,0,0,0,18.8,13.741,4.1,4.1,0,0,0,22.037,12.211Z" transform="translate(-9.972 -8.72)" fill="#fff"/>
    </g>
  </g>
</svg>
