<svg xmlns="http://www.w3.org/2000/svg" xmlns:xlink="http://www.w3.org/1999/xlink" width="138" height="138" viewBox="0 0 138 138">
  <defs>
    <filter id="楕円形_3" x="0" y="0" width="138" height="138" filterUnits="userSpaceOnUse">
      <feOffset dy="3" input="SourceAlpha"/>
      <feGaussianBlur stdDeviation="3" result="blur"/>
      <feFlood flood-opacity="0.161"/>
      <feComposite operator="in" in2="blur"/>
      <feComposite in="SourceGraphic"/>
    </filter>
  </defs>
  <g id="app" transform="translate(9 6)">
    <g transform="matrix(1, 0, 0, 1, -9, -6)" filter="url(#楕円形_3)">
      <circle id="楕円形_3-2" data-name="楕円形 3" cx="60" cy="60" r="60" transform="translate(9 6)" fill="#c30013"/>
    </g>
    <text id="get_app" data-name="get app" transform="translate(60 99)" fill="#fff" font-size="13" font-family="Helvetica" letter-spacing="0.1em"><tspan x="-31.604" y="0">GET APP</tspan></text>
    <g id="グループ_57" data-name="グループ 57" transform="translate(-1202 -662)">
      <path id="Icon_material-phone-iphone" data-name="Icon material-phone-iphone" d="M36.577,1.5H14.423A6.874,6.874,0,0,0,7.5,8.318V54.682A6.874,6.874,0,0,0,14.423,61.5H36.577A6.874,6.874,0,0,0,43.5,54.682V8.318A6.874,6.874,0,0,0,36.577,1.5ZM25.5,58.773a4.091,4.091,0,1,1,4.154-4.091A4.117,4.117,0,0,1,25.5,58.773Z" transform="translate(1236.5 678.5)" fill="#fff"/>
      <rect id="長方形_28" data-name="長方形 28" width="27" height="40" rx="1" transform="translate(1248.5 685.556)" fill="#c30013"/>
      <g id="グループ_56" data-name="グループ 56" transform="translate(1253 697.778)">
        <path id="パス_46" data-name="パス 46" d="M2,11.414a2.917,2.917,0,0,0,3,2.828H17a2.917,2.917,0,0,0,3-2.828V10H2Z" transform="translate(-2 1.313)" fill="#fff"/>
        <path id="パス_47" data-name="パス 47" d="M14,2H8A5.836,5.836,0,0,0,2,7.657H20A5.836,5.836,0,0,0,14,2Z" transform="translate(-2 -2)" fill="#fff"/>
        <path id="パス_48" data-name="パス 48" d="M10.5,9.828h5.25V7h-3Z" transform="translate(2.25 0.071)" fill="#fff"/>
        <path id="パス_49" data-name="パス 49" d="M2,7V9.828H14.75L12.5,7Z" transform="translate(-2 0.071)" fill="#fff"/>
      </g>
    </g>
  </g>
</svg>
