<svg xmlns="http://www.w3.org/2000/svg" xmlns:xlink="http://www.w3.org/1999/xlink" width="135" height="40" viewBox="0 0 135 40">
  <defs>
    <linearGradient id="linear-gradient" x1="0.915" y1="1.03" x2="-0.383" y2="0.361" gradientUnits="objectBoundingBox">
      <stop offset="0" stop-color="#00a0ff"/>
      <stop offset="0.007" stop-color="#00a1ff"/>
      <stop offset="0.26" stop-color="#00beff"/>
      <stop offset="0.512" stop-color="#00d2ff"/>
      <stop offset="0.76" stop-color="#00dfff"/>
      <stop offset="1" stop-color="#00e3ff"/>
    </linearGradient>
    <linearGradient id="linear-gradient-2" x1="1.076" y1="0.733" x2="-1.305" y2="0.733" gradientUnits="objectBoundingBox">
      <stop offset="0" stop-color="#ffe000"/>
      <stop offset="0.409" stop-color="#ffbd00"/>
      <stop offset="0.775" stop-color="orange"/>
      <stop offset="1" stop-color="#ff9c00"/>
    </linearGradient>
    <linearGradient id="linear-gradient-3" x1="0.862" y1="-0.023" x2="-0.501" y2="-1.793" gradientUnits="objectBoundingBox">
      <stop offset="0" stop-color="#ff3a44"/>
      <stop offset="1" stop-color="#c31162"/>
    </linearGradient>
    <linearGradient id="linear-gradient-4" x1="-0.188" y1="2.697" x2="0.421" y2="1.907" gradientUnits="objectBoundingBox">
      <stop offset="0" stop-color="#32a071"/>
      <stop offset="0.068" stop-color="#2da771"/>
      <stop offset="0.476" stop-color="#15cf74"/>
      <stop offset="0.801" stop-color="#06e775"/>
      <stop offset="1" stop-color="#00f076"/>
    </linearGradient>
  </defs>
  <g id="グループ_49" data-name="グループ 49" transform="translate(-10 -10)">
    <g id="artwork" transform="translate(10 10)">
      <g id="グループ_46" data-name="グループ 46">
        <rect id="長方形_22" data-name="長方形 22" width="135" height="40" rx="5" transform="translate(0)"/>
        <g id="グループ_43" data-name="グループ 43" transform="translate(0 0)">
          <g id="グループ_42" data-name="グループ 42">
            <path id="パス_74" data-name="パス 74" d="M140,10.8a4.2,4.2,0,0,1,4.2,4.2V45a4.2,4.2,0,0,1-4.2,4.2H15A4.2,4.2,0,0,1,10.8,45V15A4.2,4.2,0,0,1,15,10.8H140m0-.8H15a5.015,5.015,0,0,0-5,5V45a5.015,5.015,0,0,0,5,5H140a5.015,5.015,0,0,0,5-5V15a5.015,5.015,0,0,0-5-5Z" transform="translate(-10 -10)" fill="#a6a6a6"/>
          </g>
        </g>
        <path id="パス_75" data-name="パス 75" d="M74.725,22.79a3.718,3.718,0,1,0,3.731,3.718A3.664,3.664,0,0,0,74.725,22.79Zm0,5.971a2.259,2.259,0,1,1,2.1-2.253A2.151,2.151,0,0,1,74.725,28.761ZM66.584,22.79a3.718,3.718,0,1,0,3.731,3.718A3.665,3.665,0,0,0,66.584,22.79Zm0,5.971a2.259,2.259,0,1,1,2.1-2.253A2.15,2.15,0,0,1,66.584,28.761ZM56.9,23.931v1.577h3.774a3.288,3.288,0,0,1-.859,1.985A3.86,3.86,0,0,1,56.9,28.648a4.2,4.2,0,0,1,0-8.393,4.023,4.023,0,0,1,2.845,1.127l1.112-1.112A5.5,5.5,0,0,0,56.9,18.678a5.774,5.774,0,1,0,0,11.547,5.278,5.278,0,0,0,4.027-1.619,5.7,5.7,0,0,0,1.282-4.675Zm39.6,1.225a3.456,3.456,0,0,0-3.183-2.366,3.533,3.533,0,0,0-3.506,3.718A3.637,3.637,0,0,0,93.5,30.225a3.7,3.7,0,0,0,3.1-1.647l-1.267-.845A2.123,2.123,0,0,1,93.5,28.761a1.892,1.892,0,0,1-1.8-1.127l4.972-2.056Zm-5.07,1.239a2.04,2.04,0,0,1,1.943-2.169,1.439,1.439,0,0,1,1.38.789ZM87.392,30h1.634V19.073H87.392Zm-2.675-6.379H84.66A2.574,2.574,0,0,0,82.7,22.79a3.721,3.721,0,0,0,0,7.435,2.535,2.535,0,0,0,1.957-.844h.057v.535c0,1.422-.761,2.182-1.986,2.182a2.058,2.058,0,0,1-1.873-1.323l-1.422.591a3.542,3.542,0,0,0,3.295,2.2c1.916,0,3.535-1.127,3.535-3.873V23.015H84.717Zm-1.873,5.14a2.261,2.261,0,0,1,0-4.506,2.094,2.094,0,0,1,1.985,2.267A2.078,2.078,0,0,1,82.844,28.761Zm21.311-9.688h-3.908V30h1.631V25.86h2.277a3.4,3.4,0,1,0,0-6.787Zm.042,5.266h-2.319V20.594H104.2a1.873,1.873,0,1,1,0,3.745Zm10.08-1.569a3.062,3.062,0,0,0-2.91,1.673l1.448.6a1.546,1.546,0,0,1,1.49-.8,1.57,1.57,0,0,1,1.715,1.406v.112a3.617,3.617,0,0,0-1.7-.421c-1.56,0-3.149.857-3.149,2.46a2.524,2.524,0,0,0,2.713,2.4,2.3,2.3,0,0,0,2.081-1.069h.056v.844h1.575V25.793C117.595,23.852,116.147,22.77,114.277,22.77Zm-.2,5.989c-.534,0-1.279-.267-1.279-.928,0-.843.928-1.167,1.729-1.167a2.9,2.9,0,0,1,1.49.366A1.977,1.977,0,0,1,114.08,28.759Zm9.25-5.75-1.869,4.738H121.4l-1.941-4.738h-1.757l2.91,6.621-1.659,3.684h1.7l4.485-10.3ZM108.64,30h1.63V19.073h-1.63Z" transform="translate(-10 -10)" fill="#fff"/>
        <g id="グループ_45" data-name="グループ 45" transform="translate(9.973 7.141)">
          <path id="パス_76" data-name="パス 76" d="M20.435,17.538a2.007,2.007,0,0,0-.462,1.4V41.059a2.005,2.005,0,0,0,.462,1.4l.074.072L32.9,30.147v-.292L20.509,17.465Z" transform="translate(-19.973 -17.14)" fill="url(#linear-gradient)"/>
          <path id="パス_77" data-name="パス 77" d="M37.028,34.279,32.9,30.147v-.292l4.131-4.131.093.054,4.893,2.78c1.4.794,1.4,2.093,0,2.887l-4.893,2.78Z" transform="translate(-19.973 -17.14)" fill="url(#linear-gradient-2)"/>
          <path id="パス_78" data-name="パス 78" d="M37.122,34.225,32.9,30,20.435,42.464a1.627,1.627,0,0,0,2.079.061l14.608-8.3" transform="translate(-19.973 -17.141)" fill="url(#linear-gradient-3)"/>
          <path id="パス_79" data-name="パス 79" d="M37.122,25.777l-14.608-8.3a1.627,1.627,0,0,0-2.079.061L32.9,30Z" transform="translate(-19.973 -17.14)" fill="url(#linear-gradient-4)"/>
          <g id="グループ_44" data-name="グループ 44" transform="translate(0 16.991)">
            <path id="パス_80" data-name="パス 80" d="M37.029,34.132,22.514,42.379a1.665,1.665,0,0,1-2,.011h0l-.075.074h0l.074.073h0a1.665,1.665,0,0,0,2-.011l14.608-8.3Z" transform="translate(-19.973 -34.132)" opacity="0.2" style="isolation: isolate"/>
            <path id="パス_81" data-name="パス 81" d="M20.435,42.318a2.007,2.007,0,0,1-.462-1.4v.146a2.005,2.005,0,0,0,.462,1.405l.075-.074Z" transform="translate(-19.973 -34.132)" opacity="0.12" style="isolation: isolate"/>
          </g>
          <path id="パス_82" data-name="パス 82" d="M42.015,31.3l-4.986,2.833.093.093,4.893-2.78A1.755,1.755,0,0,0,43.063,30h0A1.861,1.861,0,0,1,42.015,31.3Z" transform="translate(-19.973 -17.141)" opacity="0.12" style="isolation: isolate"/>
          <path id="パス_83" data-name="パス 83" d="M22.514,17.623l19.5,11.08A1.861,1.861,0,0,1,43.063,30h0a1.753,1.753,0,0,0-1.048-1.444l-19.5-11.08c-1.4-.794-2.541-.134-2.541,1.466v.147C19.973,17.489,21.116,16.829,22.514,17.623Z" transform="translate(-19.973 -17.14)" fill="#fff" opacity="0.25" style="isolation: isolate"/>
        </g>
      </g>
    </g>
    <g id="Layer_3" data-name="Layer 3" transform="translate(51.008 35.48)">
      <g id="グループ_48" data-name="グループ 48">
        <g id="グループ_47" data-name="グループ 47">
          <path id="パス_84" data-name="パス 84" d="M51.8,37.028c.585-.053,2.268-.215,3.907-.36.972-.08,1.81-.126,2.4-.152v.719a7.341,7.341,0,0,0-1.747.145A3.118,3.118,0,0,0,54.331,40.2c0,1.738,1.62,2.287,3.069,2.341l-.261.756c-1.647-.071-3.529-.954-3.529-2.943a3.6,3.6,0,0,1,1.657-3.007c-.784.09-3.214.324-4.178.522l-.081-.793C51.351,37.065,51.629,37.047,51.8,37.028Zm5.788,2.548-.459.216a8.4,8.4,0,0,0-.738-1.269l.459-.2A10.765,10.765,0,0,1,57.589,39.576Zm1.027-.386-.468.215a8.021,8.021,0,0,0-.766-1.251l.451-.207A13.7,13.7,0,0,1,58.616,39.19Z" transform="translate(-51.008 -35.48)" fill="#fff" stroke="#fff" stroke-miterlimit="10" stroke-width="0.2"/>
          <path id="パス_85" data-name="パス 85" d="M67.555,40.756H63.864v2c0,.477-.144.676-.477.783a6.96,6.96,0,0,1-1.854.117,3.4,3.4,0,0,0-.288-.666c.756.028,1.458.018,1.665.009s.279-.062.279-.252V40.756h-3.7V40.1h3.7V38.64h-3.1V38h3.1V36.614c-.99.109-2.008.171-2.935.216a3.055,3.055,0,0,0-.171-.594,29.839,29.839,0,0,0,6.086-.756l.5.532a16.945,16.945,0,0,1-2.809.53V38h3.187v.639H63.864V40.1h3.691Z" transform="translate(-51.008 -35.48)" fill="#fff" stroke="#fff" stroke-miterlimit="10" stroke-width="0.2"/>
          <path id="パス_86" data-name="パス 86" d="M70.3,36.245c-.054.153-.135.441-.172.6a20.507,20.507,0,0,0-.432,3.412,9.148,9.148,0,0,0,.073,1.224c.152-.4.351-.927.5-1.279l.387.288a19.471,19.471,0,0,0-.631,2,2.312,2.312,0,0,0-.044.4L70,43.2l-.648.045a11.163,11.163,0,0,1-.324-2.862,24.753,24.753,0,0,1,.4-3.574,5.166,5.166,0,0,0,.063-.63Zm2.034,4.321a3.323,3.323,0,0,0-.117.82c0,.4.27.8,1.494.8a9.69,9.69,0,0,0,2.206-.235l.009.756a11.831,11.831,0,0,1-2.223.181c-1.5,0-2.161-.495-2.161-1.333a5.157,5.157,0,0,1,.144-1.053Zm-.351-3.636a15.588,15.588,0,0,0,3.664,0v.738a22.527,22.527,0,0,1-3.655,0Z" transform="translate(-51.008 -35.48)" fill="#fff" stroke="#fff" stroke-miterlimit="10" stroke-width="0.2"/>
          <path id="パス_87" data-name="パス 87" d="M81.667,36.012A7.708,7.708,0,0,0,85.4,43.1a3.175,3.175,0,0,0-.54.557,7.762,7.762,0,0,1-3.574-5.014A7.954,7.954,0,0,1,77.7,43.663a4.31,4.31,0,0,0-.6-.53c1.99-1.036,3.1-2.846,3.646-5.366l.4.063a11.3,11.3,0,0,1-.117-1.152H78.8v-.666Z" transform="translate(-51.008 -35.48)" fill="#fff" stroke="#fff" stroke-miterlimit="10" stroke-width="0.2"/>
          <path id="パス_88" data-name="パス 88" d="M94.17,42.277a2.28,2.28,0,0,1-1.639.747c-.585,0-.99-.4-.99-1.134,0-.991.333-2.457.333-3.322a.635.635,0,0,0-.711-.729,4.829,4.829,0,0,0-2.62,1.72c-.018.377-.026.728-.026,1.044,0,.81,0,1.35.035,2.151.009.153.027.379.046.54h-.783c.008-.126.026-.387.026-.53.009-.856.009-1.3.027-2.287,0-.09.009-.207.009-.342-.433.657-1.018,1.512-1.449,2.106l-.45-.621c.5-.621,1.521-2.008,1.971-2.71.018-.288.036-.576.054-.855-.4.045-1.18.153-1.737.225l-.073-.748a3.973,3.973,0,0,0,.585-.009c.288-.017.811-.071,1.27-.143.027-.424.045-.738.045-.838a3.309,3.309,0,0,0-.036-.666l.855.027c-.045.216-.117.72-.18,1.341l.045-.017.261.315c-.107.162-.261.4-.4.621-.019.162-.028.333-.045.5a5.031,5.031,0,0,1,2.727-1.494,1.117,1.117,0,0,1,1.26,1.2c0,.891-.333,2.431-.333,3.331,0,.306.145.54.46.54a1.962,1.962,0,0,0,1.341-.738Z" transform="translate(-51.008 -35.48)" fill="#fff" stroke="#fff" stroke-miterlimit="10" stroke-width="0.2"/>
          <path id="パス_89" data-name="パス 89" d="M99.192,38.469c0,.585.045,1.449.09,2.223a7.083,7.083,0,0,1,2.773,1.522l-.432.666a6.236,6.236,0,0,0-2.313-1.467c.008.234.017.432.017.594,0,.729-.45,1.359-1.638,1.359-1.224,0-2.134-.4-2.134-1.413,0-.8.7-1.468,2.242-1.468a5.341,5.341,0,0,1,.756.055c-.036-.721-.072-1.54-.072-2.071,0-.513,0-1.251-.009-1.629a6.719,6.719,0,0,0-.072-.883h.865a7.539,7.539,0,0,0-.073.883c-.008.243,0,.557,0,.909.711-.019,1.836-.064,2.638-.171l.027.684c-.793.072-1.935.126-2.665.144Zm-.612,2.746a3.988,3.988,0,0,0-.873-.09c-.919,0-1.44.315-1.44.8s.5.765,1.35.765c.656,0,.972-.306.972-.918C98.589,41.629,98.58,41.44,98.58,41.215Z" transform="translate(-51.008 -35.48)" fill="#fff" stroke="#fff" stroke-miterlimit="10" stroke-width="0.2"/>
          <path id="パス_90" data-name="パス 90" d="M107.411,38.7a8.316,8.316,0,0,0-2.431.459c-.27.072-.531.18-.747.261l-.225-.828c.243-.027.55-.081.81-.135a11.826,11.826,0,0,1,2.665-.432,1.977,1.977,0,0,1,2.214,1.981c0,1.935-1.719,3.033-4.033,3.376l-.423-.685c2.161-.27,3.692-1.116,3.692-2.719A1.345,1.345,0,0,0,107.411,38.7Zm1.575-2.323-.107.693c-.991-.062-2.791-.243-3.8-.423l.117-.684A23.9,23.9,0,0,0,108.986,36.38Z" transform="translate(-51.008 -35.48)" fill="#fff" stroke="#fff" stroke-miterlimit="10" stroke-width="0.2"/>
        </g>
      </g>
    </g>
  </g>
</svg>
