<svg xmlns="http://www.w3.org/2000/svg" width="218" height="160" viewBox="0 0 218 160">
  <g id="グループ_7" data-name="グループ 7" transform="translate(-1363.896 -136.749)">
    <g id="グループ_5" data-name="グループ 5" transform="translate(1363.896 136.749)">
      <path id="パス_32" data-name="パス 32" d="M1581.9,267.115a183.4,183.4,0,0,0-25.7-12.81,121.129,121.129,0,0,0-6.71-20.056,78.182,78.182,0,0,0,1.491-15.232c0-1.47-.052-2.932-.133-4.388a51.927,51.927,0,0,0,8.32-5.667,80.808,80.808,0,0,0-8.817.131,77.983,77.983,0,0,0-57.212-65.18,25.54,25.54,0,0,0-7.653-3.1c-6.97-1.663-8.551-4.063-8.551-4.063a12.1,12.1,0,0,0-2.625,4.559c-.47-.008-.94-.023-1.412-.023a77.839,77.839,0,0,0-40.579,11.3,10.97,10.97,0,0,1-5.337-5.354,32.233,32.233,0,0,0-.9,9.576,79.049,79.049,0,0,0-8.395,7.247,77.726,77.726,0,0,0-15.942,22.86,19.978,19.978,0,0,0-10.281,3.845c-6.334.98-8.812,4.654-8.812,4.654a41.363,41.363,0,0,1,14.678,3.952c-.028.108-.055.216-.083.323-1.988.2-8.224,1.163-11.517,5.373,0,0,2.635,2.85,9.744,3.895a78.643,78.643,0,0,0-.657,10.063,77.247,77.247,0,0,0,6.453,31.035c-.781.255-1.559.5-2.344.772a182.664,182.664,0,0,0-35.025,16.291L1386,274.158l-7.681,22.127a208.981,208.981,0,0,1,29.081-12.04s.529,2.594.808,4.978.418,5.513.418,5.513a181.934,181.934,0,0,1,26.855-7.455,78.646,78.646,0,0,0,74.822,0,181.966,181.966,0,0,1,26.855,7.455s.137-3.135.417-5.513.808-4.978.808-4.978a208.981,208.981,0,0,1,29.081,12.04l-7.68-22.127Z" transform="translate(-1363.896 -136.749)" fill="#fff"/>
      <path id="パス_33" data-name="パス 33" d="M1476.178,297.265a76.889,76.889,0,0,1-36.7-9.286l-.473-.257-.527.1a184.362,184.362,0,0,0-25.2,6.848c-.071-1.083-.175-2.44-.314-3.629-.284-2.418-.806-4.992-.827-5.1l-.333-1.633-1.588.525a219.98,219.98,0,0,0-26.015,10.476l6.979-20.107-20.4-6.5a181.772,181.772,0,0,1,31.9-14.491c.612-.209,1.22-.407,1.828-.6l2.046-.666-.651-1.488a75.5,75.5,0,0,1-6.329-30.446,77.437,77.437,0,0,1,.645-9.874l.186-1.438-1.44-.212a19.755,19.755,0,0,1-7.781-2.615c3.112-2.854,7.951-3.566,9.489-3.723l1.029-.105.637-2.482-1.081-.529A43.122,43.122,0,0,0,1389.3,196.3a14.052,14.052,0,0,1,5.67-2.094l.387-.06.307-.243a18.319,18.319,0,0,1,9.521-3.534l.84-.092.349-.765a76.112,76.112,0,0,1,15.64-22.426,77.955,77.955,0,0,1,8.238-7.111l.637-.477-.048-.792a29.726,29.726,0,0,1,.21-5.657,11.735,11.735,0,0,0,3.948,2.874l.711.313.662-.4a76.591,76.591,0,0,1,39.806-11.082c.317,0,.632.007.947.014l1.548.029.332-1.055a10.633,10.633,0,0,1,1.376-2.833,21.934,21.934,0,0,0,8.037,3.332,23.906,23.906,0,0,1,7.213,2.916l.189.118.216.057a76.551,76.551,0,0,1,34.306,19.757,75.246,75.246,0,0,1,21.816,44.182l.177,1.388,1.4-.1c1.424-.1,2.9-.164,4.391-.183-1.236.851-2.817,1.867-4.74,2.966l-.793.453.051.909c.089,1.6.131,3.006.131,4.306a76.944,76.944,0,0,1-1.464,14.946l-.091.457.189.426a120.119,120.119,0,0,1,6.626,19.81l.18.734.7.284a182.647,182.647,0,0,1,22.653,11.038l-20.4,6.5,6.979,20.107a219.988,219.988,0,0,0-26.015-10.476l-1.588-.525-.333,1.633c-.022.108-.544,2.682-.828,5.1-.14,1.189-.244,2.546-.315,3.629a184.365,184.365,0,0,0-25.2-6.848l-.528-.1-.472.257A76.9,76.9,0,0,1,1476.178,297.265Z" transform="translate(-1367.178 -138.742)" fill="#fff"/>
    </g>
    <g id="グループ_6" data-name="グループ 6" transform="translate(1363.896 136.749)">
      <path id="パス_34" data-name="パス 34" d="M1618.981,402.822q-.088.542-.2,1.325c.332-.012,1.2-.079,1.25-.474C1620.1,403.15,1618.981,402.822,1618.981,402.822Z" transform="translate(-1485.392 -264.203)" fill="#c30013"/>
      <path id="パス_35" data-name="パス 35" d="M1577.864,399.826c-.015.377-.03.887-.042,1.4.33-.048,1.185-.213,1.192-.612S1578.459,399.926,1577.864,399.826Z" transform="translate(-1465.868 -262.768)" fill="#c30013"/>
      <path id="パス_36" data-name="パス 36" d="M1548.2,375.379c-.7.008-1.089.759-1.405,1.668a34.348,34.348,0,0,0-1.1,4.6c-.185,1.291.177,1.509.567,1.464s1.073-.5,1.434-1.758.773-2.929,1-3.833S1549.112,375.369,1548.2,375.379Z" transform="translate(-1450.528 -251.058)" fill="#c30013"/>
      <path id="パス_37" data-name="パス 37" d="M1577.779,404.754c-.008.749,0,1.345.005,1.776,0,0,.831-.048,1.066-.637C1579.069,405.343,1578.38,404.894,1577.779,404.754Z" transform="translate(-1465.845 -265.129)" fill="#c30013"/>
      <path id="パス_38" data-name="パス 38" d="M1594.409,400.527c-.032.364-.067.81-.1,1.336.33-.035,1.188-.165,1.212-.563C1595.55,400.773,1594.409,400.527,1594.409,400.527Z" transform="translate(-1473.725 -263.104)" fill="#c30013"/>
      <path id="パス_39" data-name="パス 39" d="M1626.621,385.006c.623-1.152,1.384-2.7,1.8-3.531s.87-2.013-.027-2.2c-.683-.141-1.226.509-1.731,1.329a34.34,34.34,0,0,0-2.063,4.261c-.458,1.222-.151,1.512.239,1.551S1626,386.158,1626.621,385.006Z" transform="translate(-1488.058 -252.916)" fill="#c30013"/>
      <path id="パス_40" data-name="パス 40" d="M1656.923,387.8a7.693,7.693,0,0,0-1.53,1.579c-.188.252-.129.342.108.273a9.869,9.869,0,0,1,2.036-.4c.238-.028.3-.1.364-.218a4.327,4.327,0,0,0,.289-.639C1658.475,387.642,1657.7,387.231,1656.923,387.8Z" transform="translate(-1502.79 -256.88)" fill="#c30013"/>
      <path id="パス_41" data-name="パス 41" d="M1654.275,394.522a9.885,9.885,0,0,0-2.051.787c-.547.339-.867.754-.616,1.034.313.348,1.013.194,1.638-.314a6.758,6.758,0,0,0,1.2-1.251C1654.587,394.569,1654.5,394.48,1654.275,394.522Z" transform="translate(-1500.998 -260.223)" fill="#c30013"/>
      <path id="パス_42" data-name="パス 42" d="M1519.869,385.553c.385-.075,1.031-.582,1.291-1.865s.54-2.981.7-3.9.247-2.178-.665-2.1c-.7.063-1.026.841-1.27,1.772a34.181,34.181,0,0,0-.734,4.673C1519.107,385.439,1519.485,385.628,1519.869,385.553Z" transform="translate(-1437.914 -252.164)" fill="#c30013"/>
      <path id="パス_43" data-name="パス 43" d="M1472.926,401.476a4.808,4.808,0,0,0-1.66,0c-.6.147-.637.961.271,1a2.546,2.546,0,0,0,1.774-.626C1473.631,401.539,1473.267,401.518,1472.926,401.476Z" transform="translate(-1414.869 -263.522)" fill="#c30013"/>
      <path id="パス_44" data-name="パス 44" d="M1489.385,375.7a1.694,1.694,0,0,0-1.075,1.862c.017.939.128,7.36.152,8.324s.162,1.373.668,1.394,2.334-.523,2.893-3.9a12.581,12.581,0,0,0-.646-7.037A1.756,1.756,0,0,0,1489.385,375.7Z" transform="translate(-1423.2 -251.17)" fill="#c30013"/>
      <path id="パス_45" data-name="パス 45" d="M1581.9,267.115a183.4,183.4,0,0,0-25.7-12.81,121.129,121.129,0,0,0-6.71-20.056,78.182,78.182,0,0,0,1.491-15.232c0-1.47-.052-2.932-.133-4.388a51.927,51.927,0,0,0,8.32-5.667,80.808,80.808,0,0,0-8.817.131,77.983,77.983,0,0,0-57.212-65.18,25.54,25.54,0,0,0-7.653-3.1c-6.97-1.663-8.551-4.063-8.551-4.063a12.1,12.1,0,0,0-2.625,4.559c-.47-.008-.94-.023-1.412-.023a77.839,77.839,0,0,0-40.579,11.3,10.97,10.97,0,0,1-5.337-5.354,32.233,32.233,0,0,0-.9,9.576,79.049,79.049,0,0,0-8.395,7.247,77.726,77.726,0,0,0-15.942,22.86,19.978,19.978,0,0,0-10.281,3.845c-6.334.98-8.812,4.654-8.812,4.654a41.363,41.363,0,0,1,14.678,3.952c-.028.108-.055.216-.083.323-1.988.2-8.224,1.163-11.517,5.373,0,0,2.634,2.85,9.744,3.895a78.533,78.533,0,0,0-.657,10.063,77.247,77.247,0,0,0,6.453,31.035c-.781.255-1.559.5-2.344.772a182.664,182.664,0,0,0-35.025,16.291L1386,274.158l-7.681,22.127a208.981,208.981,0,0,1,29.081-12.04s.529,2.594.809,4.978.417,5.513.417,5.513a181.934,181.934,0,0,1,26.855-7.455,78.646,78.646,0,0,0,74.822,0,181.95,181.95,0,0,1,26.855,7.455s.137-3.135.417-5.513.808-4.978.808-4.978a208.981,208.981,0,0,1,29.081,12.04l-7.68-22.127ZM1525.79,166.36a73.775,73.775,0,0,1,21.292,43.043,49.412,49.412,0,0,0-23.784,9.156c-7.63,5.387-14.271,14.372-14.271,14.372.166-.4.333-.795.5-1.191.273-.181.543-.371.81-.573,0,0-.178-.057-.494-.18,9.183-21.438,20.994-34.4,20.994-34.4-11.5,1.122-20.971,11.493-20.971,11.493-4.7,7-6.948,15.959-7.479,18.3a32.781,32.781,0,0,1-6.334-7.256,6.055,6.055,0,0,0,.8-2.009,4.394,4.394,0,0,0-2.664-4.82c.3-.606.758-1.511,1.291-2.568a12.751,12.751,0,0,1,3.8-1.3c2.62-.522,8.441-.87,10.245-5.1s-.27-9.418-.27-9.418c5.312-1.548,11.6-4.794,13.694-10.82,2.041-5.863-.863-12.034-7.536-13s-11.92,3.289-11.92,3.289c.842-5.159.907-12.834-1.814-19.154a25.393,25.393,0,0,0-2.906-5.113A74.605,74.605,0,0,1,1525.79,166.36Zm-26.646,114.2s-.641.039-1.22.1c0,0-.019-.783-.1-1.561a11.347,11.347,0,0,0-.226-1.351c-.141.022-.3.037-.457.051-.23,1.819-.278,2.723-.278,2.723l-1.241-.164s.322-1.778.518-3.248c.089-.676.177-1.4.245-1.981,0,0-.062,0-.116-.006s-.13,0-.13,0c.078-.377.128-1.179.128-1.179a6.407,6.407,0,0,1,2.533.752,1.478,1.478,0,0,1-.239,2.787S1498.858,279.313,1499.144,280.561Zm-.613-8.145c-4.08-.947-4.3-4.01-2.414-7.158a9.793,9.793,0,0,1,8.719-4.554c6.227.473,5.818,4.444,3.91,7.589A9.77,9.77,0,0,1,1498.531,272.416Zm-4.308,3.474-.152,1.143a12.231,12.231,0,0,0-1.324-.193c-.08.737-.156,1.53-.212,2.138,0,0,1.384.188,2.329.226,0,0-.086.527-.143,1.051,0,0-1.207-.143-1.723-.2s-1.755-.175-1.755-.175.2-1.016.432-3.193.263-3.211.263-3.211,2.062.265,3.506.377c0,0-.067.537-.125,1.15,0,0-.539-.077-1.151-.153s-1.156-.095-1.156-.095c-.044.306-.092.653-.137,1.011A11.919,11.919,0,0,0,1494.222,275.891Zm-5.339,2.526c.414.035.637-.808.719-1.388a5.613,5.613,0,0,0-.593-.051s.086-.821.1-1.1a7.538,7.538,0,0,0,.971.16c.481.042.91.064.91.064a5.856,5.856,0,0,0-.132.726c-.245,1.86-.758,2.958-2.083,2.843-1.139-.1-1.7-1.233-1.518-3.308s.889-3.243,2.176-3.132a1.466,1.466,0,0,1,1.338.976,2.7,2.7,0,0,0,.251.484,8.379,8.379,0,0,0-1.216.519s0-.792-.488-.834-.815.968-.912,2.082S1488.442,278.378,1488.883,278.416Zm-.766-7.1c-1.035-.054-1.307-1.07-1.38-1.93s-.218-4.262-.327-5.006-.431-.819-.965-.257-2.718,3.162-3.931,4.781-2.15,1.951-2.948,1.908-1.372-.956-1.341-2.1-.219-9.812-.3-11.646-1.7-2.126-3.011-1.369c-2.445,1.408-3.71,5.253-3.258,6.023s.914.685,1.639,1.325c1.13,1,1.249,2.928-.2,3.576s-3.466-.552-3.75-2.635a11.175,11.175,0,0,1,2.277-7.86c2.223-3.037,5.865-4.372,8.493-3.682a4.491,4.491,0,0,1,3.348,4.657c-.015,1.7-.087,3.376-.12,4.426-.052,1.674.6,1.414,1.14.839a23.191,23.191,0,0,0,2.063-2.609c.664-.991.9-1.884.528-2.407s-.971-.756-.871-1.5.812-1.587,4.549-1.531,4.255.969,4.227,1.491-.269.872-1.034,1.194a1.669,1.669,0,0,0-1.16,1.67c-.048.9-.065,2.74,0,3.777s.51,1.562,1.432.4a43.082,43.082,0,0,0,2.955-4.271c.461-.862.305-1.283.135-1.439a1.028,1.028,0,0,1-.383-1.171c.214-.668,1.252-1.233,3.766-1.1s3.224.7,3.158,1.376-.7.966-1.4,1.225a4.493,4.493,0,0,0-2.044,1.634c-.763.963-6.773,8.587-7.948,10.06S1489.152,271.373,1488.117,271.318Zm-1.5,7.915s-.637.085-1.21.185c0,0-.076-.78-.216-1.55a11.294,11.294,0,0,0-.323-1.332c-.14.032-.3.058-.452.083-.1,1.831-.079,2.736-.079,2.736l-1.25-.073s.192-1.8.279-3.277c.04-.681.075-1.408.1-1.994l-.384-.01a7.514,7.514,0,0,0-.034-1.183,7.259,7.259,0,0,1,2.8.589,1.5,1.5,0,0,1-.035,2.8S1486.237,278.009,1486.614,279.233Zm-4.388.007-1.25-.048s.011-.13.029-.351a1.09,1.09,0,0,1-.911.317c-1.112-.042-1.3-1.083-1.251-2.107.02-.394.046-.806.061-1.2.057-1.482.083-3.183.083-3.183l1.205.046s-.125,1.027-.209,3.215c-.016.441-.031.835-.036,1.183-.009.587.152.784.45.829.422.063.716-.6.716-.6.029-.455.056-.944.074-1.4.057-1.483.082-3.183.082-3.183l1.2.045s-.125,1.027-.208,3.215S1482.225,279.239,1482.225,279.239Zm-4.135-1.894a1.645,1.645,0,0,1-1.381,1.567,8.3,8.3,0,0,1-2.1.118s.117-1.8.143-3.286c.011-.62.019-1.434.021-2.018-.281-.012-.471-.017-.471-.017.035-.383.02-1.172.02-1.172a6.829,6.829,0,0,1,2.807.51,1.492,1.492,0,0,1,.122,2.772A1.836,1.836,0,0,1,1478.09,277.345Zm-9.373-1.455c.024,1.483.091,3.183.091,3.183l-1.206.02s.068-1.033.032-3.222-.138-3.219-.138-3.219l1.251-.02s.261.818.525,1.533.636,1.5.636,1.5c-.019-1.149-.05-3.051-.05-3.051l1.163-.019s-.065,1.453-.035,3.275.081,3.166.081,3.166l-1.164.019c-.057-.27-.348-1.177-.569-1.784s-.623-1.65-.623-1.65C1468.714,275.712,1468.715,275.8,1468.717,275.891Zm-5.321.137c-.08-2.188-.2-3.216-.2-3.216s2.078-.033,3.525-.128c0,0,.011.541.042,1.157,0,0-.545,0-1.161.013s-1.158.071-1.158.071c0,.309,0,.659.009,1.02a11.971,11.971,0,0,0,1.352-.071l.015,1.153a12.306,12.306,0,0,0-1.339,0c.027.741.066,1.536.1,2.146,0,0,1.4-.012,2.338-.109,0,0-.009.534.01,1.06,0,0-1.215.031-1.734.049s-1.761.078-1.761.078S1463.476,278.215,1463.4,276.027Zm-5.405-4.652c-4.19-.056-5.063-3-3.9-6.479a9.77,9.77,0,0,1,7.54-6.3c6.184-.863,6.638,3.1,5.449,6.581A9.749,9.749,0,0,1,1457.99,271.375Zm2.558,8.024-1.249.072s-.019-1.776-.106-3.257-.227-3.176-.227-3.176l1.2-.07s-.019.786.062,2.437c0,0,.817-1.631,1.216-2.6a9.207,9.207,0,0,0,1.09.539s-.613,1.044-1.137,2.031c-.117.221-.234.447-.345.665a22.733,22.733,0,0,0,1.69,2.658s-.547.358-.939.668c0,0-.413-.764-.707-1.245s-.59-.975-.59-.975c-.095.2-.151.315-.151.315C1460.459,278.773,1460.548,279.4,1460.548,279.4Zm-3.609-3.026a3.067,3.067,0,0,0,1.563,2.524,7.282,7.282,0,0,0-.567.679,3.669,3.669,0,0,1-2.2-3.12,3.631,3.631,0,0,1,1.908-3.421l.544.648A3.3,3.3,0,0,0,1456.94,276.372Zm-5.84,3.863-1.2.136s-.033-1.034-.282-3.21-.451-3.19-.451-3.19l1.243-.141s.068,1.029.175,2.171c0,0,.258-.018.572-.054s.606-.079.606-.079c-.119-1.038-.248-2.163-.248-2.163l1.156-.131s.078,1.452.285,3.263.388,3.143.388,3.143l-1.156.131s-.173-2.039-.3-3.146c0,0-.23.016-.6.058s-.592.08-.592.08C1450.869,278.57,1451.1,280.236,1451.1,280.236Zm-4.359-49.609c-1.723-1.213-7.089-4.582-16.269-6.848a75.006,75.006,0,0,1,10.871-17.683,123.012,123.012,0,0,1,11.568,8.3,18.426,18.426,0,0,1-12.152.41,17.984,17.984,0,0,0,12.3,12.157,11.638,11.638,0,0,0,.047,1.563c-1.148,1.951-3.915,7.511-2.6,13.931l.849-.2a12.513,12.513,0,0,0,.278,2.855s6.813-7.445,14.035-10.2a23.974,23.974,0,0,0,7.124,12.606h-.832a190.369,190.369,0,0,0-29.311,2.236v-.016a45.865,45.865,0,0,1,7.51-21.957A19.8,19.8,0,0,0,1446.74,230.626Zm-10.654-27.755c.745.438,1.553.922,2.411,1.446a80.367,80.367,0,0,0-11.774,18.647q-1.529-.289-3.173-.53A65.492,65.492,0,0,1,1436.087,202.872ZM1419.958,222c-1.063-.1-2.151-.195-3.278-.261,0,0,5.082-13.449,14.472-21.645,0,0,.816.428,2.195,1.2A52.037,52.037,0,0,0,1419.958,222Zm38.277-8.621c-.294-3.088.2-6.21,2.351-7.12,2.016-.851,4.8,1.085,8.495,5.7a14.765,14.765,0,0,0,1.252,3.663,8.227,8.227,0,0,0-3.888,4.535,4.855,4.855,0,0,0-2.279-1.562c-1.5-.49-2.207.278-2.247.9s.481,1.045,1.3.98c2.354-.185,2.817.922,2.817.922a8.689,8.689,0,0,0-.039,4.173,25.18,25.18,0,0,0-4.3,3.651c-1.7,1.938-3.719,2.053-4.9,1.4-2.437-1.334-2.624-7.1,1.067-13.207a12.382,12.382,0,0,0,1.733,2.139A30.614,30.614,0,0,1,1458.235,213.378Zm28.192-38.967c2.8-.46,6.043,1.943,5.39,9.315a11.749,11.749,0,0,0,1.082-5.6s6.153,3.621,6.994,10.15c.822,6.381-2.752,12.934-7.572,23.389a9.6,9.6,0,0,0-1.048-.165,14.26,14.26,0,0,0-6.511.968,30.265,30.265,0,0,0,1.595-2.7s6.29-2.088,8.32-6.3.148-8.235-4.634-9.293a14.835,14.835,0,0,0-2.6-.335c3.267-5.164,2.834-10.026,1.476-11.94a4.3,4.3,0,0,0-6.771,0,7.732,7.732,0,0,0-.679.882,1.251,1.251,0,0,1-.941.083,2.335,2.335,0,0,1-1.313-1.232,2.1,2.1,0,0,0,.247,1.582,2.068,2.068,0,0,0,1.292.937,14.511,14.511,0,0,0-.8,4.841,11.952,11.952,0,0,1,2.4-5.527c1.457-1.783,3.614-1.627,4.64-.179s.385,4.13.385,4.13c-4.919-.064-5.44,3.779-4.363,5.131a4.393,4.393,0,0,0,2.134,1.367,14.476,14.476,0,0,0-3.964.945,23.254,23.254,0,0,0-5.013-4.632,11.207,11.207,0,0,0,1.295-7.378c-.475-2.341-2.861-3.583-4.71-2.092a1.728,1.728,0,0,1-1.55.545,11.933,11.933,0,0,1,3.455-4.053,12.06,12.06,0,0,1,8.718-2.584,8.682,8.682,0,0,0-1.542,3.023S1483.623,174.871,1486.427,174.411Zm4.989,56.085a24.859,24.859,0,0,0-.814-4.331,49.7,49.7,0,0,1-3.072,14.7s-.45-.873-.9-1.622a4.432,4.432,0,0,0,1.473-1.584c.883-1.638.883-4,.6-6.553s-.522-4.156,1.927-6.354c1.175-1.054,2.532-2.193,3.687-3.408,1.365,1.879,6.2,7.944,13.172,10.184C1507.488,231.525,1499.126,234.722,1491.415,230.5Zm14.912,2.886c-.213.54-.379.974-.5,1.287-.441-.3-.826-.552-1.138-.75Q1505.511,233.693,1506.327,233.382Zm-14.092-13.747c-2.047,2.717-5.137,5.035-6.7,6.433a6.271,6.271,0,0,1,1.927.04,12.569,12.569,0,0,0-.328,4.206c.141,2.808-.071,5.9-2.08,7.194s-6.345-.491-8.5-4.211-2.185-6.106-2.045-7.72.952-2.562,2.785-2.106c0,0,.176,1.053,2.467,1.123a6.36,6.36,0,0,0,3.667-.913s-.247-1.712-3.032-1.944a12.009,12.009,0,0,0-5.57,1.172,9.166,9.166,0,0,1,2.5-4.057,11.812,11.812,0,0,0,5.511-3.848c1.552-.69,4.815-1.935,7.633-1.643C1494.323,213.761,1494.282,216.918,1492.235,219.635Zm-26.877,13.746s-8.246,3.007-11.9,7.164a23.592,23.592,0,0,1,1-2.876,23.425,23.425,0,0,0-2.653,2.588,33.6,33.6,0,0,1,2.247-8.672,4.26,4.26,0,0,0,5.188,1.675c2.569-.959,6.1-5.314,7.707-5.994a6.232,6.232,0,0,0,5.981,2.078s1.267,5.473,5.174,8.681a25.853,25.853,0,0,0-2.123,8.979s-7.095-4.507-10.217-17.583A11.269,11.269,0,0,0,1465.358,233.381Zm8.377-9.7a8.091,8.091,0,0,0-.8,3.368,4.511,4.511,0,0,1-3.355,0c-1.766-.733-2.082-3.331-1.094-5.732a12.219,12.219,0,0,1,2.847-4.2,5.6,5.6,0,0,0,3.322,1.876c.05.009.1.009.149.017C1474.052,219.916,1472.818,221.805,1473.735,223.682Zm1.971-37.774a2.454,2.454,0,0,0-2.466.418,2.95,2.95,0,0,0-.7,1.848q-.558-.25-1.148-.474c-.213-2.64,1.3-5.839,2.948-5.422C1476.1,182.722,1475.706,185.908,1475.706,185.908Zm-4.062-3.835a10.709,10.709,0,0,0-1.428,5.218q-.359-.111-.727-.21a16.035,16.035,0,0,1,1.409-5.165A1.661,1.661,0,0,0,1471.644,182.072Zm10.173,15.268a10.141,10.141,0,0,0-.277-1.2s5.044-1.737,8.788-.289,3.925,5.645,1.381,8.323a11.678,11.678,0,0,1-4.871,3.293,3.386,3.386,0,0,1,.128-1.793s-2.979,5.748-6.5,8.913-8.117,2.491-9.3-2.054c-1.043-4.006-1.851-7.566-3.186-9.945.258.083.523.166.805.249,1.575.466,2.469,1.568,3.193,4.492s1.192,5.593,4.044,6.06,6-3.856,7.875-6.822,3-5.139,3.523-5.457.753-.029,1.043.779,1.094.463,1.13-.231c.116-2.25-2.028-3.346-3.825-3.49,0,0,1.159.75,1.13,1.529s-1.883,2.567-6.663,3.028-11.531-2.25-14.138-3.058-7.851-2.6-13.385,1.327c0,0,.315-6.4,5.556-9.974S1472.772,187.585,1481.817,197.34Zm-5.482,10.548c-.576-.514-.517-.772-.258-.91a4.214,4.214,0,0,1,2.98.732c1.081.9,1.073,1.76.278,2.551a6.437,6.437,0,0,1-2.213,1.239A3.684,3.684,0,0,0,1476.336,207.888Zm-9.572-4.179c.376.922.794,2.049,1.174,3.288a22.06,22.06,0,0,0-1.845-1.547A10.576,10.576,0,0,0,1466.764,203.709Zm-13.4,20.749a19.57,19.57,0,0,1-10.143-7.116s7.458,2.129,13.88-1.795c.032.11.059.221.093.331A22.727,22.727,0,0,0,1453.363,224.458Zm1.958,55.334-1.246.119s-.085-1.774-.228-3.251-.344-3.165-.344-3.165l1.2-.115s.014,1.035.224,3.214S1455.321,279.793,1455.321,279.793Zm53.639-29.039a185.509,185.509,0,0,0-22.25-2.806,81.725,81.725,0,0,1,15.816-6.064,45.286,45.286,0,0,0-9.949,1.708s-1.217-.412-.959-2.4a7.806,7.806,0,0,1,1.727-3.174c-4.862,3.342-2.709,6.168-2.709,6.168a43.492,43.492,0,0,0-5.925,2.427q-1.086.544-2.081,1.112c-1.634-.073-3.254-.132-4.844-.164a27.05,27.05,0,0,1,2.6-8.106,7.243,7.243,0,0,0,4.274.578c.641,1.072,1.761,2.99,2.7,4.806,0,0,2.759-3,3.829-11.244a27.057,27.057,0,0,0,10.826.874c9.382,6.893,9.824,10.744,9.824,10.744A16.4,16.4,0,0,1,1508.96,250.753Zm-2.621-21.523c2.074-6.079,5.881-14.957,5.881-14.957-3.375,4.464-6.551,11.864-7.42,13.962q-.556-.384-1.14-.828c.8-2.965,3.636-12.323,8.862-18.289a42.333,42.333,0,0,1,14.218-10.386c-9.212,10.026-15.852,23.835-19.027,31.274C1507.293,229.785,1506.831,229.527,1506.339,229.231ZM1472.9,144.55c.275,0,.548.009.822.013a22.537,22.537,0,0,0,2.5,10.889c-6.543-5.675-12.632-8.126-19.525-7.989-6.648.131-12.362,5.387-19.194,5.919A74.684,74.684,0,0,1,1472.9,144.55Zm-45.172,7.291c4.635,3.9,11.974,4.614,19.314.879s13.078-3.46,21.741.44,15.34,11.975,15.34,11.975c-.938-2.2-3.421-5.658-6.125-12.03s-.9-13.653-.9-13.653c1.617,1.459,4.092,2.264,8.9,3.723s11.812,7.38,14.5,17.031a36.783,36.783,0,0,1,.819,17.162c4.54-5.621,14.088-6.548,18.162-1.449,2.233,2.795,1.164,8.055-3.2,11.474a51.478,51.478,0,0,1-9.9,5.8,7.388,7.388,0,0,1,.815,9.1c-1.688,2.55-5.53,3.419-7.859,3.883-.993.2-1.76.382-2.33.532,1.085-2.143,2.218-4.363,3-5.855a21.521,21.521,0,0,0,2.871-11.737c-.363-4.488-4.509-10.592-10.814-13.677,0,0-1.2-3.639-5.859-2.763a9.321,9.321,0,0,1-4.083-5.086,5.668,5.668,0,0,0-2.327,3.262s-5.224-1.654-7.124-5.342a12.581,12.581,0,0,0,2.8,8.84,10.567,10.567,0,0,0-2.644,1.76,26.22,26.22,0,0,0-16.092-2.442c-4.717.808-10.684,3.039-17.958-.581C1426.78,167.1,1427.724,151.841,1427.724,151.841ZM1420,166.36a76.065,76.065,0,0,1,6.551-5.8,23.809,23.809,0,0,0,6.792,12.929c4.6,4.183,11.938,6.772,21.275,3.917a31.45,31.45,0,0,1,16.914,0,16.3,16.3,0,0,0-3.781,9.292c-.225-.039-.452-.076-.682-.107-8.857-1.2-16.4,6.193-15.665,16.587a12.043,12.043,0,0,1,8.02-2.509,23.482,23.482,0,0,1,5.256.833,11.522,11.522,0,0,1-.65,2.643,5.367,5.367,0,0,0-3.947-.655c-2.938.922-4.091,4.8-3.594,9.07-.483.315-.965.6-1.445.855a178.057,178.057,0,0,0-23.214-16.674s-.313.212-.848.617a34.494,34.494,0,0,1-7.112-9.171c-2.951-5.515-5.624-11.184-10-14.927A75.808,75.808,0,0,1,1420,166.36Zm-9.015,10.829a23.155,23.155,0,0,0,1,10.191,34.085,34.085,0,0,0-6.538-.651A73.721,73.721,0,0,1,1410.987,177.189ZM1388.3,205.1s7.155-4.431,18.718-4.431c0,0-1.04-.87-4.7-1.118a41.724,41.724,0,0,0-15.1-5.218s8.153-3.188,20.174-1.325a28.858,28.858,0,0,0-10.777-2.466c3.639-1.222,11.011-2.765,21.665-.534a17.209,17.209,0,0,0-4.049-1.981,24.276,24.276,0,0,1-1.182-13.389s1.981,1.567,5.485,9.05c3.351,7.154,7.258,11.808,10.968,14.855a49.327,49.327,0,0,0-4.925,4.792c-3.155-5.3-7.924-4.6-7.924-4.6a13.066,13.066,0,0,1,1.547,1.12,13.061,13.061,0,0,0-5.625.466c6.244.182,9.576,3.159,10.749,4.469a48,48,0,0,0-4.12,5.779,43.1,43.1,0,0,0-16.013-3.646C1393.629,206.716,1390.305,205.817,1388.3,205.1Zm50.476,61.424a10.178,10.178,0,0,1-5.317,8.048,11.649,11.649,0,0,1-6.5,1.2c-.552,0-.559-.024-1.325.481a9.9,9.9,0,0,1-5.676,1.826c-2.411-.1-3.727-2.269-2.482-4.154s4.359-1.595,4.977-1.536.824.078.842-.226.182-5.959.2-6.964-.091-1.418-.425-1.686-1.7-.586-3.688.634-2.148,2.695-1.606,3.005.69.01,1.51.017a2.139,2.139,0,0,1,2.408,2.12c-.038.825-.806,1.975-2.783,1.921s-4.457-1.96-3.925-4.578,2.834-4.865,9.45-6.645l7.378-1.984a5.317,5.317,0,0,1,5.108.791C1438.419,260.087,1439.043,263.333,1438.781,266.525Zm.606-16.237a181.9,181.9,0,0,0-30.105,7.949,73.731,73.731,0,0,1-11.189-39.22,75.228,75.228,0,0,1,.642-9.734c8.291.586,14.4,1.536,19.193,3.553A41.22,41.22,0,0,0,1414,223.6s17.012.441,31.642,8.264c-2.9,3.515-5.542,8.934-6.18,17.124C1439.424,249.422,1439.4,249.856,1439.387,250.288Zm.643,16.386a9.762,9.762,0,0,1,7.021-6.874c6.1-1.343,6.863,2.576,5.951,6.136a9.739,9.739,0,0,1-8.577,6.893C1440.243,273.1,1439.141,270.231,1440.03,266.674Zm7.325,10.738a3.069,3.069,0,0,0,1.7,2.436,7.229,7.229,0,0,0-.529.708,3.672,3.672,0,0,1-2.371-3,3.63,3.63,0,0,1,1.719-3.518l.578.617A3.3,3.3,0,0,0,1447.355,277.412Zm25.541,16.072a74.82,74.82,0,0,1-32.1-7.165,189.842,189.842,0,0,1,31.167-2.534h1.872A189.848,189.848,0,0,1,1505,286.319,74.824,74.824,0,0,1,1472.9,293.484Zm56.158-17.4a1.722,1.722,0,0,1-2.71.666,2.913,2.913,0,0,1-1.341-2.822c.015-.986.249-1.522-1.234-2.451-.169-.106-.37-.054-.6.237-.2.243-.4.489-.613.725-2.507,2.726-5.574,3.657-7.413,3.183a2.922,2.922,0,0,1-1.927-1.256c-.174-.275-.4-.424-.736.076l-.9,1.352c-.3.467-.22.853.322,1.366a.671.671,0,0,1-.137,1.124c-.41.265-1.729.683-4.251-.244s-3.077-1.92-2.785-2.664a1.9,1.9,0,0,1,1.287-1.013,1.64,1.64,0,0,0,.747-.58c.651-.985,4.413-6.608,4.762-7.154s.238-.781-.248-.907c-.682-.176-.778-1.128.3-1.677a12.434,12.434,0,0,1,5.568-.492c1.192.165,1.645.49,1.558,1.1-.057.4.033.656.708.436s2.907-.954,4.683.071c1.16.669,1.235,2.413.421,4.291-.066.153-.094.3.122.388a9.978,9.978,0,0,1,3.768,2.923A3.327,3.327,0,0,1,1529.054,276.083Zm7.458-17.846A181.915,181.915,0,0,0,1511,251.15c.2-.3.386-.591.558-.868,1.986-.068,8.831-.307,16.632-.608,5.425-.21,10.108-.3,13.066-.333A73.637,73.637,0,0,1,1536.512,258.237Zm5.323-10.221a86.412,86.412,0,0,0-9.457-3.637,132.059,132.059,0,0,0-13.107-3.227c2.014-.328,5.676-.692,11.755-1.13a33.484,33.484,0,0,0,9.439-1.817c1.029,1.823,2.076,3.583,3.119,5.266Q1542.783,245.773,1541.835,248.017Zm5.036,2.808c-.784-.268-1.562-.517-2.342-.772.449-1.025.871-2.063,1.275-3.107,1.072,1.633,2.125,3.176,3.137,4.611C1548.25,251.312,1547.557,251.059,1546.871,250.824Zm-4.4-13.936c.271-.628.631-1.391.631-1.391-4.776,1.66-15.005,2.557-20.323,3.275a25.111,25.111,0,0,0-9.012,3.006A172.877,172.877,0,0,1,1534.9,247.3s-6.444.493-12.527.449a92.042,92.042,0,0,1-9.215-.494,7.2,7.2,0,0,0,.3-.84c1.084-1.32,1.486-3.2-1.848-6.838a29.844,29.844,0,0,0-3.154-2.94,65.651,65.651,0,0,1,22.252-19.608,63.669,63.669,0,0,1,23.127-6.92c-3.179,2.521-9.215,4.667-17.136,9.495a154.8,154.8,0,0,0-17.029,12.714,21.343,21.343,0,0,0-6.251,4.291c13.472-7.778,31.127-7.59,31.127-7.59,6.227,11.317,11.2,28.8,11.2,28.8A173.631,173.631,0,0,1,1542.471,236.888Zm5.229-17.872a75.276,75.276,0,0,1-.686,10.136c-.684-1.274-1.1-1.925-1.1-1.925-6.407-2.105-19.9,2.353-19.9,2.353a162.4,162.4,0,0,1,21.634-13.205C1547.678,217.254,1547.7,218.134,1547.7,219.017Z" transform="translate(-1363.896 -136.749)" fill="#c30013"/>
    </g>
  </g>
</svg>
