<svg id="コンポーネント_1_1" data-name="コンポーネント 1 – 1" xmlns="http://www.w3.org/2000/svg" width="124" height="32" viewBox="0 0 124 32">
  <g id="グループ_1" data-name="グループ 1" transform="translate(26.409 23.91)">
    <path id="パス_1" data-name="パス 1" d="M138.885,496.486l-.611-.848a4.447,4.447,0,0,0-.288,8.058,8.968,8.968,0,0,1,.773-.777,3.767,3.767,0,0,1-1.69-3.252A4.061,4.061,0,0,1,138.885,496.486Z" transform="translate(-135.559 -495.605)" fill="#c30013"/>
    <path id="パス_2" data-name="パス 2" d="M150.364,496v2.681s-.368.013-.761.013-.716-.014-.716-.014c.029-1.412.091-2.68.091-2.68h-1.561s.106,1.27.106,3.966-.106,3.966-.106,3.966h1.5s-.049-2.069-.05-3.887c0,0,.284-.015.744-.015s.748.012.748.012c0,1.371-.075,3.89-.075,3.89h1.451s-.036-1.654-.036-3.9.11-4.033.11-4.033Z" transform="translate(-143.202 -495.84)" fill="#c30013"/>
    <path id="パス_3" data-name="パス 3" d="M162.348,496s.05,2.094.05,3.921-.106,4.011-.106,4.011h1.561s-.106-1.27-.106-3.966.106-3.966.106-3.966Z" transform="translate(-152.788 -495.84)" fill="#c30013"/>
    <path id="パス_4" data-name="パス 4" d="M195.778,496s.106,1.27.106,3.966-.106,3.966-.106,3.966,1.551-.016,2.2-.016,2.163.016,2.163.016c0-.649.036-1.305.036-1.305-1.177.078-2.919.03-2.919.03-.012-.752-.025-1.732-.025-2.646a15.588,15.588,0,0,1,1.668.062l.034-1.419a15.149,15.149,0,0,1-1.687.027c.009-.445.022-.875.034-1.256,0,0,.678-.049,1.446-.036s1.447.036,1.447.036c-.011-.759,0-1.425,0-1.425C198.369,496.051,195.778,496,195.778,496Z" transform="translate(-174.371 -495.84)" fill="#c30013"/>
    <path id="パス_5" data-name="パス 5" d="M213.6,496v3.758s-.447-.975-.762-1.86-.624-1.9-.624-1.9h-1.561s.106,1.27.106,3.966-.106,3.966-.106,3.966h1.5s-.049-2.094-.049-3.921c0-.109,0-.22,0-.331,0,0,.48,1.294.743,2.044s.608,1.874.673,2.207h1.451s-.036-1.654-.036-3.9.11-4.033.11-4.033Z" transform="translate(-183.958 -495.84)" fill="#c30013"/>
    <path id="パス_6" data-name="パス 6" d="M185.523,496.286a11.425,11.425,0,0,1-1.317-.741c-.567,1.166-1.7,3.113-1.7,3.113.021-2.034.1-3,.1-3h-1.5s.05,2.094.05,3.921-.106,4.011-.106,4.011H182.6s-.065-.775-.093-2.4c0,0,.079-.143.21-.377,0,0,.333.628.664,1.241s.788,1.581.788,1.581c.511-.353,1.219-.754,1.219-.754a27.788,27.788,0,0,1-1.91-3.388c.154-.26.316-.53.477-.793C184.683,497.525,185.523,496.286,185.523,496.286Z" transform="translate(-164.874 -495.545)" fill="#c30013"/>
    <path id="パス_7" data-name="パス 7" d="M172.51,496.486l-.611-.848a4.447,4.447,0,0,0-.288,8.058,8.965,8.965,0,0,1,.773-.777,3.767,3.767,0,0,1-1.69-3.252A4.061,4.061,0,0,1,172.51,496.486Z" transform="translate(-157.231 -495.605)" fill="#c30013"/>
    <path id="パス_8" data-name="パス 8" d="M267.727,496.467a9.1,9.1,0,0,0-3.5-.519,9.061,9.061,0,0,1,.128,1.442l.476-.015c.011.718.022,1.608.022,2.442,0,1.815-.106,4.022-.106,4.022h1.55s-.089-1.1-.1-3.342c.2-.042.382-.087.553-.138a13.751,13.751,0,0,1,.5,1.6c.229.93.381,1.877.381,1.877.7-.163,1.482-.312,1.482-.312-.555-1.467-1.22-3.642-1.22-3.642A1.826,1.826,0,0,0,267.727,496.467Zm-1.533,2.664c.005-.645.016-1.191.029-1.638,0,0,1.429.218,1.429.865C267.652,498.845,266.6,499.065,266.194,499.131Z" transform="translate(-218.488 -495.801)" fill="#c30013"/>
    <path id="パス_9" data-name="パス 9" d="M237.8,496.353a8.5,8.5,0,0,0-3.475-.563s.034.964,0,1.434c0,0,.235,0,.582.01.01.715.019,1.71.019,2.469,0,1.815-.106,4.022-.106,4.022a10.315,10.315,0,0,0,2.588-.189,2.017,2.017,0,0,0,1.671-1.947,2.244,2.244,0,0,0-1.068-1.848C239.834,498.636,239.045,496.914,237.8,496.353Zm-.186,5.468c-.277.725-1.3.8-1.3.8-.02-.53-.039-1.256-.045-2.177C237.015,500.6,237.875,501.144,237.617,501.82Zm-1.347-2.8c0-.624.012-1.248.022-1.71.737.11,1.436.445,1.436.936S236.676,498.951,236.27,499.017Z" transform="translate(-199.217 -495.698)" fill="#c30013"/>
    <path id="パス_10" data-name="パス 10" d="M253.153,496s.049,2.08.049,3.895c0,.564-.01,1.163-.024,1.72,0,0-.333.823-.858.765-.372-.041-.579-.274-.6-.991-.01-.426-.011-.908-.011-1.448,0-2.678.105-3.94.105-3.94h-1.494s.049,2.08.049,3.895c0,.48-.013.984-.018,1.467-.014,1.255.27,2.518,1.649,2.518a1.356,1.356,0,0,0,1.113-.43c-.011.27-.019.43-.019.43h1.55s-.106-1.262-.106-3.94.106-3.94.106-3.94Z" transform="translate(-209.526 -495.84)" fill="#c30013"/>
    <path id="パス_11" data-name="パス 11" d="M281.884,499.244c.018.336,0,1.341,0,1.341a7.073,7.073,0,0,1,.733,0c-.038.713-.222,1.759-.733,1.759-.546,0-.8-.96-.8-2.322s.291-2.622.9-2.622.689.96.689.96a10.434,10.434,0,0,1,1.438-.757,3.284,3.284,0,0,1-.36-.561A1.809,1.809,0,0,0,282,496c-1.592,0-2.337,1.491-2.337,4.027s.809,3.853,2.218,3.853c1.641,0,2.152-1.385,2.254-3.667a7.013,7.013,0,0,1,.085-.894s-.53.019-1.125.019A9.385,9.385,0,0,1,281.884,499.244Z" transform="translate(-228.435 -495.84)" fill="#c30013"/>
    <path id="パス_12" data-name="パス 12" d="M294.651,496s.105,1.262.105,3.94-.105,3.94-.105,3.94,1.54-.016,2.184-.016,2.149.016,2.149.016c0-.645.035-1.3.035-1.3-1.17.078-2.9.03-2.9.03-.012-.747-.024-1.721-.024-2.628a15.341,15.341,0,0,1,1.658.061l.034-1.41a15,15,0,0,1-1.676.027c.009-.441.021-.869.034-1.247,0,0,.673-.049,1.437-.036s1.438.036,1.438.036c-.011-.754,0-1.416,0-1.416C297.225,496.05,294.651,496,294.651,496Z" transform="translate(-238.096 -495.84)" fill="#c30013"/>
    <path id="パス_13" data-name="パス 13" d="M312.84,499.9c1.884-1.1,1.22-2.848-.161-3.418a8.031,8.031,0,0,0-3.234-.508,14.428,14.428,0,0,1,.035,1.45s.094-.016.16-.023.143-.011.143-.011c.011.718.021,1.608.021,2.442,0,1.815-.105,4.022-.105,4.022h1.55s-.089-1.1-.1-3.342c.2-.042.382-.087.553-.138a13.743,13.743,0,0,1,.5,1.6c.229.93.381,1.877.381,1.877.7-.163,1.482-.312,1.482-.312C313.505,502.079,312.84,499.9,312.84,499.9Zm-1.694-.753c0-.645.016-1.191.029-1.638,0,0,1.429.218,1.429.865C312.6,498.865,311.553,499.084,311.147,499.151Z" transform="translate(-247.631 -495.82)" fill="#c30013"/>
  </g>
  <g id="グループ_2" data-name="グループ 2">
    <path id="パス_14" data-name="パス 14" d="M254.624,435.276c.716-.306,1.37-.643,1.4-1.347s-.747-1.255-3.394-1.255-3.705.643-3.892,1.347a1.062,1.062,0,0,0,.467,1.194c.187.153.374.582-.062,1.5a44.543,44.543,0,0,1-2.864,4.592c-.9,1.255-1.4.735-1.526-.337s-.21-2.978-.21-3.917a1.731,1.731,0,0,1,1.125-1.795c.785-.376,1.019-.751,1.019-1.294s-.594-1.461-4.522-1.315-4.628,1.064-4.692,1.837.573.981,1,1.5.221,1.461-.42,2.525a24.038,24.038,0,0,1-2.021,2.818c-.531.626-1.2.932-1.244-.807-.025-1.09-.042-2.831-.122-4.6a4.678,4.678,0,0,0-3.776-4.646c-2.8-.571-6.548,1.012-8.714,4.283a11.484,11.484,0,0,0-1.952,8.276c.414,2.144,2.6,3.278,4.085,2.527s1.247-2.748,0-3.72c-.8-.625-1.278-.511-1.8-1.285s.6-4.83,3.085-6.424c1.339-.857,3.051-.643,3.238,1.255s.934,10.867.965,12.061.685,2.109,1.526,2.109,1.806-.4,2.989-2.14,3.332-4.561,3.861-5.173.872-.551,1.028.214.5,4.286.623,5.173.467,1.926,1.557,1.926,2.242-.824,3.394-2.416,7.037-9.826,7.784-10.867A4.71,4.71,0,0,1,254.624,435.276Z" transform="translate(-162.857 -431.167)" fill="#c30013"/>
    <path id="パス_15" data-name="パス 15" d="M91.35,437.5c-1.078-1.589-2.883-2.171-4.967-2.171H78.345c-7.207,0-10.163,1.632-11.425,4.114s.731,5.061,2.723,5.649,3.089-.359,3.354-1.176.025-2.256-1.86-2.775c-.83-.229-1.063.033-1.528-.424s.1-1.894,2.457-2.579,3.653,0,3.919.359.266.8-.033,1.805-2.023,6.627-2.125,6.927-.306.225-.917,0-3.693-1.356-5.476.2-1.044,4.084,1.375,4.835a10.552,10.552,0,0,0,6.265-.3c.917-.3.917-.275,1.477-.125a12.4,12.4,0,0,0,6.927.551,10.693,10.693,0,0,0,7.615-6.635C92.242,442.624,92.5,439.2,91.35,437.5Zm-19.3,12.39a2.716,2.716,0,0,1-1.974.149c-.911-.284-.653-1.09,0-1.075a5.1,5.1,0,0,1,1.685.448C72.094,449.548,72.459,449.668,72.048,449.892Zm12.223-3.328c-1.5,3.234-3.5,3.286-4.011,3.129s-.535-.6-.294-1.577,1.9-7.44,2.139-8.386c.286-1.119.909-1.525,1.6-1.578a1.845,1.845,0,0,1,1.845,1.183C85.822,440.149,85.768,443.33,84.271,446.563Z" transform="translate(-66.45 -433.876)" fill="#c30013"/>
    <path id="パス_16" data-name="パス 16" d="M144.053,448.735a10.272,10.272,0,0,0-8.309,6.076c-1.442,3.533-.71,6.64,3.685,6.954a10.272,10.272,0,0,0,9.934-5.874C150.827,452.358,150.6,448.217,144.053,448.735Zm.16,4.815c-.3.923-.834,2.63-1.292,3.913s-1.2,1.713-1.615,1.736-.778-.225-.5-1.553a35.273,35.273,0,0,1,1.442-4.7c.389-.923.846-1.677,1.579-1.643C144.785,451.345,144.51,452.628,144.212,453.55Z" transform="translate(-109.746 -441.759)" fill="#c30013"/>
    <path id="パス_17" data-name="パス 17" d="M185.051,448.735a10.272,10.272,0,0,0-8.309,6.076c-1.442,3.533-.71,6.64,3.685,6.954a10.272,10.272,0,0,0,9.934-5.874C191.826,452.358,191.6,448.217,185.051,448.735Zm.16,4.815c-.3.923-.834,2.63-1.292,3.913s-1.2,1.713-1.615,1.736-.778-.225-.5-1.553a35.275,35.275,0,0,1,1.442-4.7c.389-.923.846-1.677,1.579-1.643C185.783,451.345,185.509,452.628,185.211,453.55Z" transform="translate(-135.612 -441.759)" fill="#c30013"/>
    <path id="パス_18" data-name="パス 18" d="M357.087,456.04a10.61,10.61,0,0,0-4.609-1.964c-.244-.036-.254-.187-.226-.358.332-2.1-.205-3.832-1.563-4.2-2.079-.571-4.158.745-4.787,1.141s-.79.159-.837-.255c-.072-.637-.62-.848-1.877-.7a13.164,13.164,0,0,0-5.539,1.936c-.949.83-.6,1.763.141,1.763.528,0,.7.207.492.847s-2.555,7.267-2.957,8.426a1.7,1.7,0,0,1-.606.777,1.968,1.968,0,0,0-1.043,1.352c-.1.823.727,1.678,3.54,1.957s4.045-.482,4.393-.854a.692.692,0,0,0-.158-1.165c-.688-.374-.866-.743-.689-1.29l.558-1.592c.207-.589.48-.5.73-.267a3.1,3.1,0,0,0,2.294.764c2,0,4.874-1.73,6.706-5.12.159-.294.3-.593.432-.888.161-.353.353-.456.553-.394,1.755.55,1.659,1.149,1.9,2.144a3.045,3.045,0,0,0,2.112,2.49c1.414.426,2.433-.241,2.583-1.372S358.332,457.115,357.087,456.04Zm-11.641,1.4a6.991,6.991,0,0,1-.889,1.569c-.5.672-1.174,1.009-1.584.74-.33-.216-.114-.717.353-1.2a10.362,10.362,0,0,1,1.881-1.322C345.423,457.122,345.537,457.19,345.446,457.436Zm1.185-3.563a4.4,4.4,0,0,1-.125.717c-.034.135-.078.224-.312.314a10.389,10.389,0,0,0-1.967.93c-.223.131-.308.056-.182-.246a7.959,7.959,0,0,1,1.14-1.984C345.822,452.831,346.722,453.044,346.631,453.873Z" transform="translate(-234.662 -441.599)" fill="#c30013"/>
    <path id="パス_19" data-name="パス 19" d="M313.911,455.891c1.465-3.533,1.236-7.673-5.31-7.156a10.272,10.272,0,0,0-8.309,6.076c-1.442,3.533-.71,6.64,3.685,6.954A10.272,10.272,0,0,0,313.911,455.891Zm-5.15-2.34c-.3.923-.834,2.63-1.292,3.913s-1.2,1.713-1.615,1.736-.779-.225-.5-1.553a35.266,35.266,0,0,1,1.442-4.7c.389-.923.846-1.677,1.579-1.643C309.334,451.345,309.059,452.628,308.761,453.55Z" transform="translate(-213.563 -441.759)" fill="#c30013"/>
  </g>
</svg>
