<svg id="コンポーネント_1_2" data-name="コンポーネント 1 – 2" xmlns="http://www.w3.org/2000/svg" width="200" height="52" viewBox="0 0 200 52">
  <g id="グループ_1" data-name="グループ 1" transform="translate(42.595 38.853)">
    <path id="パス_1" data-name="パス 1" d="M140.923,497.016l-.986-1.378a7.249,7.249,0,0,0-.464,13.094,14.522,14.522,0,0,1,1.247-1.263,6.128,6.128,0,0,1-2.725-5.284A6.6,6.6,0,0,1,140.923,497.016Z" transform="translate(-135.559 -495.585)" fill="#fff"/>
    <path id="パス_2" data-name="パス 2" d="M152.17,496v4.356s-.593.021-1.228.021-1.155-.022-1.155-.022c.048-2.294.147-4.355.147-4.355h-2.517s.171,2.064.171,6.445-.171,6.445-.171,6.445h2.426s-.079-3.361-.08-6.317c0,0,.458-.024,1.2-.024s1.207.019,1.207.019c0,2.228-.121,6.322-.121,6.322h2.34s-.057-2.688-.057-6.337.178-6.553.178-6.553Z" transform="translate(-140.618 -495.741)" fill="#fff"/>
    <path id="パス_3" data-name="パス 3" d="M162.382,496s.08,3.4.08,6.371-.171,6.518-.171,6.518h2.517s-.171-2.063-.171-6.445.171-6.445.171-6.445Z" transform="translate(-146.964 -495.741)" fill="#fff"/>
    <path id="パス_4" data-name="パス 4" d="M195.778,496s.171,2.064.171,6.445-.171,6.445-.171,6.445,2.5-.027,3.546-.027,3.489.027,3.489.027c0-1.054.057-2.121.057-2.121-1.9.127-4.707.049-4.707.049-.02-1.222-.04-2.814-.04-4.3a24.952,24.952,0,0,1,2.691.1l.055-2.306a24.254,24.254,0,0,1-2.722.044c.015-.722.035-1.421.056-2.041,0,0,1.093-.08,2.333-.059s2.334.059,2.334.059c-.018-1.233,0-2.315,0-2.315C199.957,496.084,195.778,496,195.778,496Z" transform="translate(-161.251 -495.741)" fill="#fff"/>
    <path id="パス_5" data-name="パス 5" d="M215.405,496V502.1s-.721-1.585-1.229-3.023S213.169,496,213.169,496h-2.517s.171,2.064.171,6.445-.171,6.445-.171,6.445h2.426s-.08-3.4-.08-6.371c0-.177,0-.357,0-.538,0,0,.775,2.1,1.2,3.322s.981,3.045,1.086,3.587h2.341s-.058-2.688-.058-6.337.178-6.553.178-6.553Z" transform="translate(-167.597 -495.741)" fill="#fff"/>
    <path id="パス_6" data-name="パス 6" d="M188.269,496.749a18.378,18.378,0,0,1-2.124-1.2c-.915,1.9-2.749,5.058-2.749,5.058.033-3.306.163-4.874.163-4.874h-2.426s.08,3.4.08,6.371-.171,6.518-.171,6.518h2.517s-.1-1.26-.15-3.9c0,0,.127-.232.339-.613,0,0,.537,1.021,1.07,2.016s1.272,2.57,1.272,2.57c.824-.574,1.966-1.225,1.966-1.225a45.258,45.258,0,0,1-3.08-5.505c.248-.423.509-.861.77-1.288C186.915,498.762,188.269,496.749,188.269,496.749Z" transform="translate(-154.964 -495.545)" fill="#fff"/>
    <path id="パス_7" data-name="パス 7" d="M174.548,497.016l-.986-1.378a7.249,7.249,0,0,0-.464,13.094,14.515,14.515,0,0,1,1.247-1.263,6.128,6.128,0,0,1-2.725-5.284A6.6,6.6,0,0,1,174.548,497.016Z" transform="translate(-149.905 -495.585)" fill="#fff"/>
    <path id="パス_8" data-name="パス 8" d="M269.872,496.8a14.577,14.577,0,0,0-5.645-.844,14.831,14.831,0,0,1,.206,2.344l.767-.024c.018,1.167.035,2.614.035,3.968,0,2.949-.17,6.536-.17,6.536h2.5s-.143-1.78-.166-5.431c.315-.069.616-.142.893-.224a22.466,22.466,0,0,1,.8,2.606c.37,1.512.614,3.05.614,3.05,1.131-.264,2.391-.508,2.391-.508-.9-2.385-1.967-5.918-1.967-5.918C273.17,500.56,271.869,497.638,269.872,496.8Zm-2.472,4.33c.008-1.048.026-1.936.047-2.662,0,0,2.3.355,2.3,1.4C269.751,500.662,268.055,501.019,267.4,501.127Z" transform="translate(-190.454 -495.715)" fill="#fff"/>
    <path id="パス_9" data-name="パス 9" d="M239.933,496.71a13.609,13.609,0,0,0-5.605-.916s.055,1.566,0,2.33c0,0,.378,0,.938.017.017,1.161.03,2.779.03,4.012,0,2.949-.17,6.536-.17,6.536a16.513,16.513,0,0,0,4.175-.307A3.27,3.27,0,0,0,242,505.219a3.648,3.648,0,0,0-1.723-3C243.208,500.42,241.936,497.623,239.933,496.71Zm-.3,8.885c-.446,1.179-2.1,1.3-2.1,1.3-.032-.861-.063-2.042-.073-3.537C238.661,503.619,240.049,504.5,239.633,505.595Zm-2.172-4.555c.006-1.014.02-2.029.036-2.778,1.188.178,2.316.722,2.316,1.52S238.115,500.932,237.46,501.04Z" transform="translate(-177.698 -495.647)" fill="#fff"/>
    <path id="パス_10" data-name="パス 10" d="M254.888,496s.079,3.381.079,6.329c0,.917-.016,1.89-.039,2.8,0,0-.537,1.337-1.385,1.242-.6-.066-.935-.445-.963-1.611-.017-.692-.018-1.476-.018-2.353,0-4.352.17-6.4.17-6.4h-2.41s.08,3.381.08,6.329c0,.78-.021,1.6-.029,2.384-.023,2.04.436,4.092,2.659,4.092a2.181,2.181,0,0,0,1.8-.7c-.018.438-.03.7-.03.7h2.5s-.17-2.05-.17-6.4.17-6.4.17-6.4Z" transform="translate(-184.522 -495.741)" fill="#fff"/>
    <path id="パス_11" data-name="パス 11" d="M283.246,501.272c.029.546,0,2.179,0,2.179a11.331,11.331,0,0,1,1.183,0c-.061,1.158-.358,2.858-1.183,2.858-.88,0-1.295-1.56-1.295-3.773s.469-4.26,1.447-4.26,1.112,1.561,1.112,1.561a16.782,16.782,0,0,1,2.32-1.23,5.347,5.347,0,0,1-.58-.911,2.917,2.917,0,0,0-2.82-1.7c-2.568,0-3.769,2.423-3.769,6.543s1.3,6.262,3.578,6.262c2.647,0,3.471-2.25,3.636-5.958a11.481,11.481,0,0,1,.136-1.453s-.854.03-1.815.03A15.029,15.029,0,0,1,283.246,501.272Z" transform="translate(-197.038 -495.741)" fill="#fff"/>
    <path id="パス_12" data-name="パス 12" d="M294.651,496s.17,2.05.17,6.4-.17,6.4-.17,6.4,2.484-.027,3.523-.027,3.467.027,3.467.027c0-1.048.057-2.108.057-2.108-1.886.126-4.676.049-4.676.049-.019-1.214-.039-2.8-.039-4.271a24.552,24.552,0,0,1,2.674.1l.054-2.292a24.01,24.01,0,0,1-2.7.044c.015-.717.034-1.412.055-2.027,0,0,1.086-.08,2.318-.059s2.319.059,2.319.059c-.017-1.225,0-2.3,0-2.3C298.8,496.083,294.651,496,294.651,496Z" transform="translate(-203.434 -495.741)" fill="#fff"/>
    <path id="パス_13" data-name="パス 13" d="M314.921,502.364c3.039-1.792,1.968-4.628-.26-5.554a12.864,12.864,0,0,0-5.217-.825s.112,1.592.056,2.356c0,0,.151-.026.259-.037s.23-.018.23-.018c.018,1.167.034,2.613.034,3.968,0,2.949-.17,6.536-.17,6.536h2.5s-.143-1.78-.166-5.431c.315-.069.616-.142.893-.224a22.448,22.448,0,0,1,.8,2.606c.37,1.512.614,3.05.614,3.05,1.131-.264,2.391-.508,2.391-.508C315.994,505.9,314.921,502.364,314.921,502.364Zm-2.731-1.224c.008-1.048.026-1.936.047-2.662,0,0,2.3.355,2.3,1.4C314.541,500.675,312.844,501.032,312.19,501.14Z" transform="translate(-209.745 -495.728)" fill="#fff"/>
  </g>
  <g id="グループ_2" data-name="グループ 2">
    <path id="パス_14" data-name="パス 14" d="M275.8,437.844c1.155-.5,2.21-1.044,2.26-2.189s-1.205-2.039-5.474-2.039-5.976,1.045-6.278,2.189a1.731,1.731,0,0,0,.753,1.94c.3.249.6.946-.1,2.437a72.474,72.474,0,0,1-4.62,7.462c-1.457,2.04-2.26,1.194-2.461-.547s-.338-4.839-.338-6.365a2.814,2.814,0,0,1,1.815-2.917c1.267-.61,1.643-1.221,1.643-2.1s-.959-2.374-7.294-2.137-7.465,1.73-7.567,2.985.924,1.594,1.609,2.442.357,2.374-.678,4.1a39.056,39.056,0,0,1-3.26,4.579c-.857,1.018-1.943,1.515-2.006-1.312-.04-1.771-.068-4.6-.2-7.47s-1.576-6.622-6.09-7.55-10.562,1.645-14.054,6.96a18.774,18.774,0,0,0-3.148,13.448c.667,3.485,4.2,5.327,6.589,4.107s2.011-4.465.008-6.044c-1.287-1.015-2.061-.831-2.9-2.088s.96-7.849,4.976-10.439c2.159-1.393,4.922-1.045,5.223,2.039s1.506,17.659,1.557,19.6,1.1,3.428,2.461,3.428,2.913-.642,4.821-3.478,5.374-7.412,6.227-8.407,1.406-.9,1.658.348.8,6.964,1,8.407.753,3.13,2.511,3.13,3.616-1.339,5.474-3.925,11.35-15.968,12.555-17.659A7.612,7.612,0,0,1,275.8,437.844Z" transform="translate(-127.786 -431.167)" fill="#fff"/>
    <path id="パス_15" data-name="パス 15" d="M106.611,438.858c-1.739-2.582-4.649-3.527-8.012-3.527H85.636c-11.624,0-16.391,2.653-18.427,6.685s1.178,8.224,4.392,9.179,4.982-.584,5.41-1.91.041-3.666-3-4.51c-1.339-.371-1.714.053-2.464-.689s.161-3.078,3.964-4.192,5.892,0,6.321.584.428,1.305-.054,2.934-3.264,10.769-3.428,11.256-.493.366-1.479,0-5.957-2.2-8.832.322-1.684,6.636,2.218,7.856,7.861.253,10.105-.488c1.479-.488,1.479-.447,2.382-.2a19.863,19.863,0,0,0,11.173.9A17.289,17.289,0,0,0,106.2,452.267C108.05,447.181,108.472,441.62,106.611,438.858ZM75.48,458.992a4.351,4.351,0,0,1-3.183.242c-1.47-.461-1.053-1.771,0-1.747a8.181,8.181,0,0,1,2.718.728C75.554,458.434,76.141,458.628,75.48,458.992Zm19.714-5.409c-2.416,5.255-5.65,5.341-6.47,5.084s-.863-.982-.474-2.563,3.061-12.091,3.45-13.628c.461-1.819,1.466-2.478,2.588-2.563a2.974,2.974,0,0,1,2.976,1.922C97.7,443.16,97.609,448.329,95.194,453.583Z" transform="translate(-66.45 -432.966)" fill="#fff"/>
    <path id="パス_16" data-name="パス 16" d="M149.556,448.762a16.577,16.577,0,0,0-13.4,9.873c-2.326,5.741-1.144,10.791,5.944,11.3s13.742-4.005,16.023-9.546C160.483,454.649,160.115,447.921,149.556,448.762Zm.258,7.825c-.48,1.5-1.345,4.274-2.084,6.358s-1.94,2.783-2.6,2.82-1.255-.366-.812-2.523a57.64,57.64,0,0,1,2.326-7.642c.627-1.5,1.365-2.725,2.547-2.67C150.737,453,150.294,455.088,149.814,456.588Z" transform="translate(-94.222 -437.427)" fill="#fff"/>
    <path id="パス_17" data-name="パス 17" d="M190.554,448.762a16.577,16.577,0,0,0-13.4,9.873c-2.326,5.741-1.144,10.791,5.944,11.3s13.742-4.005,16.023-9.546C201.482,454.649,201.113,447.921,190.554,448.762Zm.259,7.825c-.48,1.5-1.346,4.274-2.084,6.358s-1.94,2.783-2.6,2.82-1.255-.366-.812-2.523a57.646,57.646,0,0,1,2.326-7.642c.628-1.5,1.365-2.725,2.548-2.67C191.735,453,191.293,455.088,190.813,456.588Z" transform="translate(-110.815 -437.427)" fill="#fff"/>
    <path id="パス_18" data-name="パス 18" d="M371.441,460.208c-2.7-2.353-7.04-3.134-7.434-3.192s-.409-.3-.365-.582c.536-3.41-.331-6.228-2.521-6.833-3.354-.927-6.707,1.21-7.721,1.854s-1.274.258-1.35-.414c-.116-1.036-1-1.377-3.027-1.146-2.949.337-7.4,1.8-8.934,3.146s-.967,2.865.227,2.865c.851,0,1.134.337.794,1.377s-4.121,11.808-4.769,13.692a2.767,2.767,0,0,1-.978,1.262,3.194,3.194,0,0,0-1.682,2.2c-.162,1.338,1.173,2.726,5.71,3.181s6.525-.782,7.086-1.388a1.129,1.129,0,0,0-.255-1.893c-1.11-.608-1.4-1.208-1.112-2.1l.9-2.587c.334-.956.775-.81,1.177-.433a4.982,4.982,0,0,0,3.7,1.242c3.221,0,7.862-2.811,10.815-8.319.256-.478.48-.963.7-1.442.26-.574.569-.742.892-.64,2.831.893,2.676,1.868,3.071,3.485a4.938,4.938,0,0,0,3.406,4.046c2.281.693,3.923-.391,4.167-2.229S373.449,461.955,371.441,460.208Zm-18.776,2.269a11.386,11.386,0,0,1-1.434,2.549c-.809,1.093-1.894,1.639-2.555,1.2-.533-.352-.184-1.165.57-1.949a16.713,16.713,0,0,1,3.033-2.148C352.628,461.967,352.812,462.076,352.665,462.477Zm1.912-5.79a7.192,7.192,0,0,1-.2,1.165c-.055.219-.126.364-.5.51a16.7,16.7,0,0,0-3.173,1.511c-.359.214-.5.091-.294-.4a12.961,12.961,0,0,1,1.838-3.223C353.272,454.993,354.724,455.339,354.576,456.686Z" transform="translate(-173.98 -436.74)" fill="#fff"/>
    <path id="パス_19" data-name="パス 19" d="M322.669,460.39c2.363-5.741,1.994-12.469-8.565-11.628a16.577,16.577,0,0,0-13.4,9.873c-2.326,5.741-1.144,10.791,5.944,11.3S320.39,465.931,322.669,460.39Zm-8.306-3.8c-.48,1.5-1.345,4.274-2.084,6.358s-1.94,2.783-2.6,2.82-1.256-.366-.812-2.523a57.626,57.626,0,0,1,2.326-7.642c.627-1.5,1.365-2.725,2.547-2.67C315.286,453,314.843,455.088,314.363,456.588Z" transform="translate(-160.817 -437.427)" fill="#fff"/>
  </g>
</svg>
